<?xml version="1.0" encoding="UTF-8" standalone="no"?>
<svg
   id="_Слой_2"
   data-name="Слой 2"
   viewBox="0 0 1832.64 242.51"
   version="1.1"
   sodipodi:docname="2 эт миллионы.svg"
   inkscape:version="1.4.3 (0d15f75, 2025-12-25)"
   xmlns:inkscape="http://www.inkscape.org/namespaces/inkscape"
   xmlns:sodipodi="http://sodipodi.sourceforge.net/DTD/sodipodi-0.dtd"
   xmlns="http://www.w3.org/2000/svg"
   xmlns:svg="http://www.w3.org/2000/svg">
  <sodipodi:namedview
     id="namedview117"
     pagecolor="#ffffff"
     bordercolor="#000000"
     borderopacity="0.25"
     inkscape:showpageshadow="2"
     inkscape:pageopacity="0.0"
     inkscape:pagecheckerboard="0"
     inkscape:deskcolor="#d1d1d1"
     inkscape:zoom="90.509668"
     inkscape:cx="280.80978"
     inkscape:cy="143.71393"
     inkscape:window-width="2560"
     inkscape:window-height="1369"
     inkscape:window-x="-8"
     inkscape:window-y="-8"
     inkscape:window-maximized="1"
     inkscape:current-layer="g117" />
  <defs
     id="defs1">
    <style
       id="style1">
      .cls-1 {
        fill: #1d1d1b;
      }

      .cls-2, .cls-3 {
        fill: none;
      }

      .cls-3 {
        stroke: #1d1d1b;
        stroke-miterlimit: 10;
        stroke-width: 2px;
      }
    </style>
  </defs>
  <g
     id="_Слой_2-2"
     data-name="Слой 2">
    <g
       id="g117">
      <rect
         class="cls-3"
         x="1"
         y="1"
         width="1830.64"
         height="240.51"
         id="rect1" />
      <g
         id="g7">
        <rect
           class="cls-3"
           x="542.68"
           y="12.83"
           width="4.98"
           height="20.21"
           id="rect2" />
        <rect
           class="cls-3"
           x="537.7"
           y="12.83"
           width="4.98"
           height="20.21"
           id="rect3" />
        <rect
           class="cls-3"
           x="532.72"
           y="12.83"
           width="4.98"
           height="20.21"
           id="rect4" />
        <rect
           class="cls-3"
           x="527.74"
           y="12.83"
           width="4.98"
           height="20.21"
           id="rect5" />
        <rect
           class="cls-3"
           x="522.77"
           y="12.83"
           width="4.98"
           height="20.21"
           id="rect6" />
        <rect
           class="cls-3"
           x="517.79"
           y="12.83"
           width="4.98"
           height="20.21"
           id="rect7" />
      </g>
      <g
         id="g13">
        <rect
           class="cls-3"
           x="512.81"
           y="12.83"
           width="4.98"
           height="20.21"
           id="rect8" />
        <rect
           class="cls-3"
           x="507.83"
           y="12.83"
           width="4.98"
           height="20.21"
           id="rect9" />
        <rect
           class="cls-3"
           x="502.85"
           y="12.83"
           width="4.98"
           height="20.21"
           id="rect10" />
        <rect
           class="cls-3"
           x="497.87"
           y="12.83"
           width="4.98"
           height="20.21"
           id="rect11" />
        <rect
           class="cls-3"
           x="492.89"
           y="12.83"
           width="4.98"
           height="20.21"
           id="rect12" />
        <rect
           class="cls-3"
           x="487.91"
           y="12.83"
           width="4.98"
           height="20.21"
           id="rect13" />
      </g>
      <g
         id="g19">
        <rect
           class="cls-3"
           x="542.68"
           y="72.55"
           width="4.98"
           height="20.21"
           id="rect14" />
        <rect
           class="cls-3"
           x="537.7"
           y="72.55"
           width="4.98"
           height="20.21"
           id="rect15" />
        <rect
           class="cls-3"
           x="532.72"
           y="72.55"
           width="4.98"
           height="20.21"
           id="rect16" />
        <rect
           class="cls-3"
           x="527.74"
           y="72.55"
           width="4.98"
           height="20.21"
           id="rect17" />
        <rect
           class="cls-3"
           x="522.77"
           y="72.55"
           width="4.98"
           height="20.21"
           id="rect18" />
        <rect
           class="cls-3"
           x="517.79"
           y="72.55"
           width="4.98"
           height="20.21"
           id="rect19" />
      </g>
      <g
         id="g25">
        <rect
           class="cls-3"
           x="512.81"
           y="72.55"
           width="4.98"
           height="20.21"
           id="rect20" />
        <rect
           class="cls-3"
           x="507.83"
           y="72.55"
           width="4.98"
           height="20.21"
           id="rect21" />
        <rect
           class="cls-3"
           x="502.85"
           y="72.55"
           width="4.98"
           height="20.21"
           id="rect22" />
        <rect
           class="cls-3"
           x="497.87"
           y="72.55"
           width="4.98"
           height="20.21"
           id="rect23" />
        <rect
           class="cls-3"
           x="492.89"
           y="72.55"
           width="4.98"
           height="20.21"
           id="rect24" />
        <rect
           class="cls-3"
           x="487.91"
           y="72.55"
           width="4.98"
           height="20.21"
           id="rect25" />
      </g>
      <g
         id="g31">
        <rect
           class="cls-3"
           x="542.68"
           y="37.22"
           width="4.98"
           height="31.15"
           id="rect26" />
        <rect
           class="cls-3"
           x="537.7"
           y="37.22"
           width="4.98"
           height="31.15"
           id="rect27" />
        <rect
           class="cls-3"
           x="532.72"
           y="37.22"
           width="4.98"
           height="31.15"
           id="rect28" />
        <rect
           class="cls-3"
           x="527.74"
           y="37.22"
           width="4.98"
           height="31.15"
           id="rect29" />
        <rect
           class="cls-3"
           x="522.77"
           y="37.22"
           width="4.98"
           height="31.15"
           id="rect30" />
        <rect
           class="cls-3"
           x="517.79"
           y="37.22"
           width="4.98"
           height="31.15"
           id="rect31" />
      </g>
      <g
         id="g37">
        <rect
           class="cls-3"
           x="512.81"
           y="37.22"
           width="4.98"
           height="31.15"
           id="rect32" />
        <rect
           class="cls-3"
           x="507.83"
           y="37.22"
           width="4.98"
           height="31.15"
           id="rect33" />
        <rect
           class="cls-3"
           x="502.85"
           y="37.22"
           width="4.98"
           height="31.15"
           id="rect34" />
        <rect
           class="cls-3"
           x="497.87"
           y="37.22"
           width="4.98"
           height="31.15"
           id="rect35" />
        <rect
           class="cls-3"
           x="492.89"
           y="37.22"
           width="4.98"
           height="31.15"
           id="rect36" />
        <rect
           class="cls-3"
           x="487.91"
           y="37.22"
           width="4.98"
           height="31.15"
           id="rect37" />
      </g>
      <g
         id="g43">
        <rect
           class="cls-3"
           x="1369.53"
           y="12.83"
           width="4.98"
           height="20.21"
           id="rect38" />
        <rect
           class="cls-3"
           x="1364.55"
           y="12.83"
           width="4.98"
           height="20.21"
           id="rect39" />
        <rect
           class="cls-3"
           x="1359.57"
           y="12.83"
           width="4.98"
           height="20.21"
           id="rect40" />
        <rect
           class="cls-3"
           x="1354.6"
           y="12.83"
           width="4.98"
           height="20.21"
           id="rect41" />
        <rect
           class="cls-3"
           x="1349.62"
           y="12.83"
           width="4.98"
           height="20.21"
           id="rect42" />
        <rect
           class="cls-3"
           x="1344.64"
           y="12.83"
           width="4.98"
           height="20.21"
           id="rect43" />
      </g>
      <g
         id="g49">
        <rect
           class="cls-3"
           x="1339.66"
           y="12.83"
           width="4.98"
           height="20.21"
           id="rect44" />
        <rect
           class="cls-3"
           x="1334.68"
           y="12.83"
           width="4.98"
           height="20.21"
           id="rect45" />
        <rect
           class="cls-3"
           x="1329.7"
           y="12.83"
           width="4.98"
           height="20.21"
           id="rect46" />
        <rect
           class="cls-3"
           x="1324.72"
           y="12.83"
           width="4.98"
           height="20.21"
           id="rect47" />
        <rect
           class="cls-3"
           x="1319.74"
           y="12.83"
           width="4.98"
           height="20.21"
           id="rect48" />
        <rect
           class="cls-3"
           x="1314.77"
           y="12.83"
           width="4.98"
           height="20.21"
           id="rect49" />
      </g>
      <g
         id="g55">
        <rect
           class="cls-3"
           x="1369.53"
           y="72.55"
           width="4.98"
           height="20.21"
           id="rect50" />
        <rect
           class="cls-3"
           x="1364.55"
           y="72.55"
           width="4.98"
           height="20.21"
           id="rect51" />
        <rect
           class="cls-3"
           x="1359.57"
           y="72.55"
           width="4.98"
           height="20.21"
           id="rect52" />
        <rect
           class="cls-3"
           x="1354.6"
           y="72.55"
           width="4.98"
           height="20.21"
           id="rect53" />
        <rect
           class="cls-3"
           x="1349.62"
           y="72.55"
           width="4.98"
           height="20.21"
           id="rect54" />
        <rect
           class="cls-3"
           x="1344.64"
           y="72.55"
           width="4.98"
           height="20.21"
           id="rect55" />
      </g>
      <g
         id="g61">
        <rect
           class="cls-3"
           x="1339.66"
           y="72.55"
           width="4.98"
           height="20.21"
           id="rect56" />
        <rect
           class="cls-3"
           x="1334.68"
           y="72.55"
           width="4.98"
           height="20.21"
           id="rect57" />
        <rect
           class="cls-3"
           x="1329.7"
           y="72.55"
           width="4.98"
           height="20.21"
           id="rect58" />
        <rect
           class="cls-3"
           x="1324.72"
           y="72.55"
           width="4.98"
           height="20.21"
           id="rect59" />
        <rect
           class="cls-3"
           x="1319.74"
           y="72.55"
           width="4.98"
           height="20.21"
           id="rect60" />
        <rect
           class="cls-3"
           x="1314.77"
           y="72.55"
           width="4.98"
           height="20.21"
           id="rect61" />
      </g>
      <g
         id="g67">
        <rect
           class="cls-3"
           x="1369.53"
           y="37.22"
           width="4.98"
           height="31.15"
           id="rect62" />
        <rect
           class="cls-3"
           x="1364.55"
           y="37.22"
           width="4.98"
           height="31.15"
           id="rect63" />
        <rect
           class="cls-3"
           x="1359.57"
           y="37.22"
           width="4.98"
           height="31.15"
           id="rect64" />
        <rect
           class="cls-3"
           x="1354.6"
           y="37.22"
           width="4.98"
           height="31.15"
           id="rect65" />
        <rect
           class="cls-3"
           x="1349.62"
           y="37.22"
           width="4.98"
           height="31.15"
           id="rect66" />
        <rect
           class="cls-3"
           x="1344.64"
           y="37.22"
           width="4.98"
           height="31.15"
           id="rect67" />
      </g>
      <g
         id="g73">
        <rect
           class="cls-3"
           x="1339.66"
           y="37.22"
           width="4.98"
           height="31.15"
           id="rect68" />
        <rect
           class="cls-3"
           x="1334.68"
           y="37.22"
           width="4.98"
           height="31.15"
           id="rect69" />
        <rect
           class="cls-3"
           x="1329.7"
           y="37.22"
           width="4.98"
           height="31.15"
           id="rect70" />
        <rect
           class="cls-3"
           x="1324.72"
           y="37.22"
           width="4.98"
           height="31.15"
           id="rect71" />
        <rect
           class="cls-3"
           x="1319.74"
           y="37.22"
           width="4.98"
           height="31.15"
           id="rect72" />
        <rect
           class="cls-3"
           x="1314.77"
           y="37.22"
           width="4.98"
           height="31.15"
           id="rect73" />
      </g>
      <rect
         class="cls-3"
         x="1"
         y="1"
         width="458.96"
         height="102.26"
         id="rect74" />
      <rect
         class="cls-3"
         x="1.2341385"
         y="141.60738"
         width="271.74921"
         height="99.668495"
         id="rect75"
         ry="0" />
      <rect
         class="cls-3"
         x="272.89102"
         y="141.63702"
         width="275.08426"
         height="99.876961"
         id="rect76" />
      <rect
         class="cls-3"
         x="402.41446"
         y="141.49171"
         width="239.2144"
         height="99.951569"
         id="rect78" />
      <rect
         class="cls-3"
         x="641.53815"
         y="141.53912"
         width="173.02269"
         height="99.981766"
         id="rect79" />
      <rect
         class="cls-3"
         x="1110.51"
         y="141.55"
         width="537.7"
         height="99.96"
         id="rect80" />
      <rect
         class="cls-3"
         x="985"
         y="141.55"
         width="88.3"
         height="99.96"
         transform="translate(2058.3 383.06) rotate(180)"
         id="rect81" />
      <rect
         class="cls-3"
         x="1073.3"
         y="141.55"
         width="37.21"
         height="99.96"
         transform="translate(2183.81 383.06) rotate(180)"
         id="rect82" />
      <rect
         class="cls-3"
         x="1717"
         y="141.55"
         width="114.64"
         height="99.96"
         id="rect83" />
      <rect
         class="cls-3"
         x="1489.79"
         y="141.55"
         width="49.15"
         height="99.96"
         id="rect84" />
      <rect
         class="cls-3"
         x="1648.21"
         y="141.55"
         width="68.79"
         height="99.96"
         id="rect85" />
      <rect
         class="cls-3"
         x="1440.64"
         y="141.55"
         width="49.15"
         height="99.96"
         id="rect86" />
      <rect
         class="cls-3"
         x="1391.49"
         y="141.55"
         width="49.15"
         height="99.96"
         id="rect87" />
      <rect
         class="cls-3"
         x="1342.47"
         y="141.55"
         width="49.15"
         height="99.96"
         id="rect88" />
      <rect
         class="cls-3"
         x="1160.89"
         y="141.55"
         width="149.62"
         height="99.96"
         id="rect89" />
      <polyline
         class="cls-3"
         points="1374.51 1 1555.02 1 1555.02 103.26 1374.51 103.26"
         id="polyline89" />
      <rect
         class="cls-3"
         x="1508.89"
         y="1"
         width="46.13"
         height="102.26"
         id="rect90" />
      <rect
         class="cls-3"
         x="1555.02"
         y="1"
         width="46.13"
         height="102.26"
         id="rect91" />
      <rect
         class="cls-3"
         x="1601.15"
         y="1"
         width="46.13"
         height="102.26"
         id="rect92" />
      <rect
         class="cls-3"
         x="1647.28"
         y="1"
         width="46.13"
         height="102.26"
         id="rect93" />
      <rect
         class="cls-3"
         x="1785.66"
         y="1"
         width="45.98"
         height="102.26"
         id="rect94" />
      <rect
         class="cls-3"
         x="1693.4"
         y="1"
         width="92.26"
         height="102.26"
         id="rect95" />
      <rect
         class="cls-3"
         x="1428.89"
         y="1"
         width="40.85"
         height="102.26"
         id="rect96" />
      <rect
         class="cls-3"
         x="1396.55"
         y="1"
         width="32.34"
         height="102.26"
         id="rect97" />
      <rect
         class="cls-3"
         x="459.96"
         y="1"
         width="87.7"
         height="102.26"
         id="rect98" />
      <line
         class="cls-3"
         x1="1693.4"
         y1="71.85"
         x2="1785.66"
         y2="71.85"
         id="line98" />
      <line
         class="cls-3"
         x1="1314.77"
         y1="103.26"
         x2="1314.77"
         y2="1"
         id="line99" />
      <line
         class="cls-3"
         x1="1220.13"
         y1="96.62"
         x2="1220.13"
         y2="1"
         id="line100" />
      <line
         class="cls-3"
         x1="640.3"
         y1="103.26"
         x2="1374.51"
         y2="103.26"
         id="line101" />
      <line
         class="cls-3"
         x1="547.66"
         y1="103.26"
         x2="640.3"
         y2="103.26"
         id="line102" />
      <line
         class="cls-3"
         x1="1220.13"
         y1="95.04"
         x2="1220.13"
         y2="103.85"
         id="line103" />
      <line
         class="cls-3"
         x1="640.3"
         y1="103.26"
         x2="640.3"
         y2="1"
         id="line104" />
      <line
         class="cls-3"
         x1="765.06"
         y1="103.26"
         x2="765.06"
         y2="1"
         id="line105" />
      <line
         class="cls-3"
         x1="810.34"
         y1="103.26"
         x2="810.34"
         y2="1"
         id="line106" />
      <line
         class="cls-3"
         x1="985"
         y1="103.26"
         x2="985"
         y2="1"
         id="line107" />
      <line
         class="cls-3"
         x1="1164.47"
         y1="103.26"
         x2="1164.47"
         y2="1"
         id="line108" />
      <line
         class="cls-3"
         x1="1121.57"
         y1="103.85"
         x2="1121.57"
         y2="1"
         id="line109" />
      <line
         class="cls-3"
         x1="765.06"
         y1="241.51"
         x2="765.06"
         y2="141.55"
         id="line110" />
      <line
         class="cls-3"
         x1="443"
         y1="103.26"
         x2="443"
         y2="1"
         id="line111" />
      <line
         class="cls-3"
         x1="402.26"
         y1="103.26"
         x2="402.26"
         y2="1"
         id="line112" />
      <line
         class="cls-3"
         x1="443"
         y1="62.87"
         x2="402.26"
         y2="62.87"
         id="line113" />
      <rect
         class="cls-3"
         x="183.79"
         y="1"
         width="89.19"
         height="102.26"
         id="rect113" />
      <g
         id="g114">
        <path
           class="cls-1"
           d="M1443.1,56.18l-2.05-8.08h1.1l.96,4.09c.24,1.01.46,2.02.6,2.79h.02c.13-.8.38-1.76.66-2.81l1.08-4.08h1.09l.98,4.1c.23.96.44,1.92.56,2.77h.02c.17-.89.4-1.79.65-2.79l1.07-4.08h1.07l-2.29,8.08h-1.09l-1.02-4.21c-.25-1.03-.42-1.82-.53-2.64h-.02c-.14.8-.32,1.6-.62,2.64l-1.15,4.21h-1.09Z"
           id="path113" />
        <path
           class="cls-1"
           d="M1457.58,55.91c-.38.19-1.15.38-2.13.38-2.28,0-3.99-1.44-3.99-4.09s1.71-4.25,4.22-4.25c1.01,0,1.64.22,1.92.36l-.25.85c-.4-.19-.96-.34-1.63-.34-1.89,0-3.15,1.21-3.15,3.33,0,1.98,1.14,3.25,3.11,3.25.64,0,1.28-.13,1.7-.34l.22.83Z"
           id="path114" />
      </g>
      <g
         id="g116">
        <path
           class="cls-1"
           d="M416.41,35.98l-2.05-8.08h1.1l.96,4.09c.24,1.01.46,2.02.6,2.79h.02c.13-.8.38-1.76.66-2.81l1.08-4.08h1.09l.98,4.1c.23.96.44,1.92.56,2.77h.02c.17-.89.4-1.79.65-2.79l1.07-4.08h1.07l-2.29,8.08h-1.09l-1.02-4.21c-.25-1.03-.42-1.82-.53-2.64h-.02c-.14.8-.32,1.6-.62,2.64l-1.15,4.21h-1.09Z"
           id="path115" />
        <path
           class="cls-1"
           d="M430.89,35.72c-.38.19-1.15.38-2.13.38-2.28,0-3.99-1.44-3.99-4.09s1.71-4.25,4.22-4.25c1.01,0,1.64.22,1.92.36l-.25.85c-.4-.19-.96-.34-1.63-.34-1.89,0-3.15,1.21-3.15,3.33,0,1.98,1.14,3.25,3.11,3.25.64,0,1.28-.13,1.7-.34l.22.83Z"
           id="path116" />
      </g>
      <rect
         class="cls-2"
         x="402.26"
         y="1"
         width="40.75"
         height="61.87"
         id="rect116" />
    </g>
  </g>
</svg>
