<?xml version="1.0" encoding="UTF-8" standalone="no"?>
<svg
   id="_Слой_2"
   data-name="Слой 2"
   viewBox="0 0 1832.64 242.51"
   version="1.1"
   sodipodi:docname="3 эт миллионы.svg"
   inkscape:version="1.4.3 (0d15f75, 2025-12-25)"
   xmlns:inkscape="http://www.inkscape.org/namespaces/inkscape"
   xmlns:sodipodi="http://sodipodi.sourceforge.net/DTD/sodipodi-0.dtd"
   xmlns="http://www.w3.org/2000/svg"
   xmlns:svg="http://www.w3.org/2000/svg">
  <sodipodi:namedview
     id="namedview104"
     pagecolor="#ffffff"
     bordercolor="#000000"
     borderopacity="0.25"
     inkscape:showpageshadow="2"
     inkscape:pageopacity="0.0"
     inkscape:pagecheckerboard="0"
     inkscape:deskcolor="#d1d1d1"
     inkscape:zoom="3.7287628"
     inkscape:cx="492.92489"
     inkscape:cy="124.57215"
     inkscape:window-width="2560"
     inkscape:window-height="1369"
     inkscape:window-x="-8"
     inkscape:window-y="-8"
     inkscape:window-maximized="1"
     inkscape:current-layer="_Слой_2-2" />
  <defs
     id="defs1">
    <style
       id="style1">
       .cls-1 {
         fill: none;
       }

       .cls-2 {
         fill: none;
         stroke: #FFFFFF;
         stroke-miterlimit: 10;
         stroke-width: 2px;
       }

      .cls-3 {
        fill: none;
        stroke: #FFFFFF;
        stroke-miterlimit: 10;
        stroke-width: 2px;
      }
    </style>
  </defs>
  <g
     id="_Слой_2-2"
     data-name="Слой 2">
    <g
       id="g104">
      <polyline
         class="cls-3"
         points="198.6 1 1831.64 1 1831.64 241.51 230 241.51"
         id="polyline1" />
      <g
         id="g6">
        <rect
           class="cls-3"
           x="542.68"
           y="12.83"
           width="4.98"
           height="20.21"
           id="rect1" />
        <rect
           class="cls-3"
           x="537.7"
           y="12.83"
           width="4.98"
           height="20.21"
           id="rect2" />
        <rect
           class="cls-3"
           x="532.72"
           y="12.83"
           width="4.98"
           height="20.21"
           id="rect3" />
        <rect
           class="cls-3"
           x="527.74"
           y="12.83"
           width="4.98"
           height="20.21"
           id="rect4" />
        <rect
           class="cls-3"
           x="522.77"
           y="12.83"
           width="4.98"
           height="20.21"
           id="rect5" />
        <rect
           class="cls-3"
           x="517.79"
           y="12.83"
           width="4.98"
           height="20.21"
           id="rect6" />
      </g>
      <g
         id="g12">
        <rect
           class="cls-3"
           x="512.81"
           y="12.83"
           width="4.98"
           height="20.21"
           id="rect7" />
        <rect
           class="cls-3"
           x="507.83"
           y="12.83"
           width="4.98"
           height="20.21"
           id="rect8" />
        <rect
           class="cls-3"
           x="502.85"
           y="12.83"
           width="4.98"
           height="20.21"
           id="rect9" />
        <rect
           class="cls-3"
           x="497.87"
           y="12.83"
           width="4.98"
           height="20.21"
           id="rect10" />
        <rect
           class="cls-3"
           x="492.89"
           y="12.83"
           width="4.98"
           height="20.21"
           id="rect11" />
        <rect
           class="cls-3"
           x="487.91"
           y="12.83"
           width="4.98"
           height="20.21"
           id="rect12" />
      </g>
      <g
         id="g18">
        <rect
           class="cls-3"
           x="542.68"
           y="72.55"
           width="4.98"
           height="20.21"
           id="rect13" />
        <rect
           class="cls-3"
           x="537.7"
           y="72.55"
           width="4.98"
           height="20.21"
           id="rect14" />
        <rect
           class="cls-3"
           x="532.72"
           y="72.55"
           width="4.98"
           height="20.21"
           id="rect15" />
        <rect
           class="cls-3"
           x="527.74"
           y="72.55"
           width="4.98"
           height="20.21"
           id="rect16" />
        <rect
           class="cls-3"
           x="522.77"
           y="72.55"
           width="4.98"
           height="20.21"
           id="rect17" />
        <rect
           class="cls-3"
           x="517.79"
           y="72.55"
           width="4.98"
           height="20.21"
           id="rect18" />
      </g>
      <g
         id="g24">
        <rect
           class="cls-3"
           x="512.81"
           y="72.55"
           width="4.98"
           height="20.21"
           id="rect19" />
        <rect
           class="cls-3"
           x="507.83"
           y="72.55"
           width="4.98"
           height="20.21"
           id="rect20" />
        <rect
           class="cls-3"
           x="502.85"
           y="72.55"
           width="4.98"
           height="20.21"
           id="rect21" />
        <rect
           class="cls-3"
           x="497.87"
           y="72.55"
           width="4.98"
           height="20.21"
           id="rect22" />
        <rect
           class="cls-3"
           x="492.89"
           y="72.55"
           width="4.98"
           height="20.21"
           id="rect23" />
        <rect
           class="cls-3"
           x="487.91"
           y="72.55"
           width="4.98"
           height="20.21"
           id="rect24" />
      </g>
      <g
         id="g30">
        <rect
           class="cls-3"
           x="542.68"
           y="37.22"
           width="4.98"
           height="31.15"
           id="rect25" />
        <rect
           class="cls-3"
           x="537.7"
           y="37.22"
           width="4.98"
           height="31.15"
           id="rect26" />
        <rect
           class="cls-3"
           x="532.72"
           y="37.22"
           width="4.98"
           height="31.15"
           id="rect27" />
        <rect
           class="cls-3"
           x="527.74"
           y="37.22"
           width="4.98"
           height="31.15"
           id="rect28" />
        <rect
           class="cls-3"
           x="522.77"
           y="37.22"
           width="4.98"
           height="31.15"
           id="rect29" />
        <rect
           class="cls-3"
           x="517.79"
           y="37.22"
           width="4.98"
           height="31.15"
           id="rect30" />
      </g>
      <g
         id="g36">
        <rect
           class="cls-3"
           x="512.81"
           y="37.22"
           width="4.98"
           height="31.15"
           id="rect31" />
        <rect
           class="cls-3"
           x="507.83"
           y="37.22"
           width="4.98"
           height="31.15"
           id="rect32" />
        <rect
           class="cls-3"
           x="502.85"
           y="37.22"
           width="4.98"
           height="31.15"
           id="rect33" />
        <rect
           class="cls-3"
           x="497.87"
           y="37.22"
           width="4.98"
           height="31.15"
           id="rect34" />
        <rect
           class="cls-3"
           x="492.89"
           y="37.22"
           width="4.98"
           height="31.15"
           id="rect35" />
        <rect
           class="cls-3"
           x="487.91"
           y="37.22"
           width="4.98"
           height="31.15"
           id="rect36" />
      </g>
      <g
         id="g42">
        <rect
           class="cls-3"
           x="1369.53"
           y="12.83"
           width="4.98"
           height="20.21"
           id="rect37" />
        <rect
           class="cls-3"
           x="1364.55"
           y="12.83"
           width="4.98"
           height="20.21"
           id="rect38" />
        <rect
           class="cls-3"
           x="1359.57"
           y="12.83"
           width="4.98"
           height="20.21"
           id="rect39" />
        <rect
           class="cls-3"
           x="1354.6"
           y="12.83"
           width="4.98"
           height="20.21"
           id="rect40" />
        <rect
           class="cls-3"
           x="1349.62"
           y="12.83"
           width="4.98"
           height="20.21"
           id="rect41" />
        <rect
           class="cls-3"
           x="1344.64"
           y="12.83"
           width="4.98"
           height="20.21"
           id="rect42" />
      </g>
      <g
         id="g48">
        <rect
           class="cls-3"
           x="1339.66"
           y="12.83"
           width="4.98"
           height="20.21"
           id="rect43" />
        <rect
           class="cls-3"
           x="1334.68"
           y="12.83"
           width="4.98"
           height="20.21"
           id="rect44" />
        <rect
           class="cls-3"
           x="1329.7"
           y="12.83"
           width="4.98"
           height="20.21"
           id="rect45" />
        <rect
           class="cls-3"
           x="1324.72"
           y="12.83"
           width="4.98"
           height="20.21"
           id="rect46" />
        <rect
           class="cls-3"
           x="1319.74"
           y="12.83"
           width="4.98"
           height="20.21"
           id="rect47" />
        <rect
           class="cls-3"
           x="1314.77"
           y="12.83"
           width="4.98"
           height="20.21"
           id="rect48" />
      </g>
      <g
         id="g54">
        <rect
           class="cls-3"
           x="1369.53"
           y="72.55"
           width="4.98"
           height="20.21"
           id="rect49" />
        <rect
           class="cls-3"
           x="1364.55"
           y="72.55"
           width="4.98"
           height="20.21"
           id="rect50" />
        <rect
           class="cls-3"
           x="1359.57"
           y="72.55"
           width="4.98"
           height="20.21"
           id="rect51" />
        <rect
           class="cls-3"
           x="1354.6"
           y="72.55"
           width="4.98"
           height="20.21"
           id="rect52" />
        <rect
           class="cls-3"
           x="1349.62"
           y="72.55"
           width="4.98"
           height="20.21"
           id="rect53" />
        <rect
           class="cls-3"
           x="1344.64"
           y="72.55"
           width="4.98"
           height="20.21"
           id="rect54" />
      </g>
      <g
         id="g60">
        <rect
           class="cls-3"
           x="1339.66"
           y="72.55"
           width="4.98"
           height="20.21"
           id="rect55" />
        <rect
           class="cls-3"
           x="1334.68"
           y="72.55"
           width="4.98"
           height="20.21"
           id="rect56" />
        <rect
           class="cls-3"
           x="1329.7"
           y="72.55"
           width="4.98"
           height="20.21"
           id="rect57" />
        <rect
           class="cls-3"
           x="1324.72"
           y="72.55"
           width="4.98"
           height="20.21"
           id="rect58" />
        <rect
           class="cls-3"
           x="1319.74"
           y="72.55"
           width="4.98"
           height="20.21"
           id="rect59" />
        <rect
           class="cls-3"
           x="1314.77"
           y="72.55"
           width="4.98"
           height="20.21"
           id="rect60" />
      </g>
      <g
         id="g66">
        <rect
           class="cls-3"
           x="1369.53"
           y="37.22"
           width="4.98"
           height="31.15"
           id="rect61" />
        <rect
           class="cls-3"
           x="1364.55"
           y="37.22"
           width="4.98"
           height="31.15"
           id="rect62" />
        <rect
           class="cls-3"
           x="1359.57"
           y="37.22"
           width="4.98"
           height="31.15"
           id="rect63" />
        <rect
           class="cls-3"
           x="1354.6"
           y="37.22"
           width="4.98"
           height="31.15"
           id="rect64" />
        <rect
           class="cls-3"
           x="1349.62"
           y="37.22"
           width="4.98"
           height="31.15"
           id="rect65" />
        <rect
           class="cls-3"
           x="1344.64"
           y="37.22"
           width="4.98"
           height="31.15"
           id="rect66" />
      </g>
      <g
         id="g72">
        <rect
           class="cls-3"
           x="1339.66"
           y="37.22"
           width="4.98"
           height="31.15"
           id="rect67" />
        <rect
           class="cls-3"
           x="1334.68"
           y="37.22"
           width="4.98"
           height="31.15"
           id="rect68" />
        <rect
           class="cls-3"
           x="1329.7"
           y="37.22"
           width="4.98"
           height="31.15"
           id="rect69" />
        <rect
           class="cls-3"
           x="1324.72"
           y="37.22"
           width="4.98"
           height="31.15"
           id="rect70" />
        <rect
           class="cls-3"
           x="1319.74"
           y="37.22"
           width="4.98"
           height="31.15"
           id="rect71" />
        <rect
           class="cls-3"
           x="1314.77"
           y="37.22"
           width="4.98"
           height="31.15"
           id="rect72" />
      </g>
      <rect
         class="cls-3"
         x="353.49"
         y="1"
         width="89.52"
         height="102.26"
         id="rect73" />
      <polyline
         class="cls-3"
         points="1 141.55 545.85 141.55 545.85 241.51 5.03 241.51"
         id="polyline73"
         transform="matrix(1.1685045,0,0,0.99886967,-0.2308301,0.21649245)" />
      <rect
         class="cls-3"
         x="261.29"
         y="141.55"
         width="46.07"
         height="99.96"
         id="rect74" />
      <rect
         class="cls-3"
         x="637.66"
         y="141.55"
         width="176.89"
         height="99.96"
         id="rect76" />
      <rect
         class="cls-3"
         x="1050.17"
         y="141.55"
         width="589.87"
         height="99.96"
         id="rect77" />
      <rect
         class="cls-3"
         x="1004.07"
         y="141.55"
         width="46.1"
         height="99.96"
         transform="translate(2054.24 383.06) rotate(180)"
         id="rect78" />
      <rect
         class="cls-3"
         x="1640.04"
         y="141.55"
         width="191.6"
         height="99.96"
         id="rect79" />
      <rect
         class="cls-3"
         x="1458.67"
         y="141.55"
         width="142.48"
         height="99.96"
         id="rect80" />
      <rect
         class="cls-3"
         x="1179.36"
         y="141.55"
         width="145.36"
         height="99.96"
         id="rect81" />
      <rect
         class="cls-3"
         x="1314.77"
         y="1"
         width="287.15"
         height="102.26"
         id="rect82" />
      <rect
         class="cls-3"
         x="1640.04"
         y="1"
         width="191.6"
         height="102.26"
         id="rect83" />
      <rect
         class="cls-3"
         x="1428.89"
         y="1"
         width="40.85"
         height="102.26"
         id="rect84" />
      <rect
         class="cls-3"
         x="1396.55"
         y="1"
         width="32.34"
         height="102.26"
         id="rect85" />
      <rect
         class="cls-3"
         x="443"
         y="1"
         width="104.66"
         height="102.26"
         id="rect86" />
      <line
         class="cls-3"
         x1="1314.77"
         y1="103.26"
         x2="1314.77"
         y2="1"
         id="line86" />
      <line
         class="cls-3"
         x1="1179.36"
         y1="103.26"
         x2="1179.36"
         y2="1"
         id="line87" />
      <line
         class="cls-3"
         x1="640.3"
         y1="103.26"
         x2="1314.77"
         y2="103.26"
         id="line88" />
      <line
         class="cls-3"
         x1="547.66"
         y1="103.26"
         x2="640.3"
         y2="103.26"
         id="line89" />
      <line
         class="cls-3"
         x1="640.3"
         y1="103.26"
         x2="640.3"
         y2="1"
         id="line90" />
      <line
         class="cls-3"
         x1="775.7"
         y1="103.26"
         x2="775.7"
         y2="1"
         id="line91" />
      <line
         class="cls-3"
         x1="911.11"
         y1="103.93"
         x2="911.11"
         y2="1.67"
         id="line92" />
      <line
         class="cls-3"
         x1="1045.83"
         y1="104.22"
         x2="1045.83"
         y2="1.37"
         id="line93" />
      <line
         class="cls-3"
         x1="765.06"
         y1="241.51"
         x2="765.06"
         y2="141.55"
         id="line94" />
      <line
         class="cls-3"
         x1="443"
         y1="103.26"
         x2="443"
         y2="1"
         id="line95" />
      <line
         class="cls-3"
         x1="402.26"
         y1="103.26"
         x2="402.26"
         y2="1"
         id="line96" />
      <line
         class="cls-3"
         x1="443"
         y1="62.87"
         x2="402.26"
         y2="62.87"
         id="line97" />
      <rect
         class="cls-3"
         x="223.87"
         y="1"
         width="129.62"
         height="102.26"
         id="rect97" />
      <rect
         class="cls-3"
         x="443"
         y="141.55"
         width="49.89"
         height="99.96"
         id="rect98" />
      <line
         class="cls-3"
         x1="1640.04"
         y1="103.26"
         x2="1601.91"
         y2="103.26"
         id="line98" />
      <rect
         class="cls-3"
         x="1"
         y="1"
         width="1830.64"
         height="240.51"
         id="rect99" />
      <rect
         class="cls-3"
         x="1"
         y="1"
         width="352.49"
         height="102.26"
         id="rect100" />
      <g
         id="g101">
        <path
           class="cls-1"
           d="M1443.1,56.18l-2.05-8.08h1.1l.96,4.09c.24,1.01.46,2.02.6,2.79h.02c.13-.8.38-1.76.66-2.81l1.08-4.08h1.09l.98,4.1c.23.96.44,1.92.56,2.77h.02c.17-.89.4-1.79.65-2.79l1.07-4.08h1.07l-2.29,8.08h-1.09l-1.02-4.21c-.25-1.03-.42-1.82-.53-2.64h-.02c-.14.8-.32,1.6-.62,2.64l-1.15,4.21h-1.09Z"
           id="path100" />
        <path
           class="cls-1"
           d="M1457.58,55.91c-.38.19-1.15.38-2.13.38-2.28,0-3.99-1.44-3.99-4.09s1.71-4.25,4.22-4.25c1.01,0,1.64.22,1.92.36l-.25.85c-.4-.19-.96-.34-1.63-.34-1.89,0-3.15,1.21-3.15,3.33,0,1.98,1.14,3.25,3.11,3.25.64,0,1.28-.13,1.7-.34l.22.83Z"
           id="path101" />
      </g>
      <g
         id="g103">
        <path
           class="cls-1"
           d="M416.41,35.99l-2.05-8.08h1.1l.96,4.09c.24,1.01.46,2.02.6,2.79h.02c.13-.8.38-1.76.66-2.81l1.08-4.08h1.09l.98,4.1c.23.96.44,1.92.56,2.77h.02c.17-.89.4-1.79.65-2.79l1.07-4.08h1.07l-2.29,8.08h-1.09l-1.02-4.21c-.25-1.03-.42-1.82-.53-2.64h-.02c-.14.8-.32,1.6-.62,2.64l-1.15,4.21h-1.09Z"
           id="path102" />
        <path
           class="cls-1"
           d="M430.89,35.73c-.38.19-1.15.38-2.13.38-2.28,0-3.99-1.44-3.99-4.09s1.71-4.25,4.22-4.25c1.01,0,1.64.22,1.92.36l-.25.85c-.4-.19-.96-.34-1.63-.34-1.89,0-3.15,1.21-3.15,3.33,0,1.98,1.14,3.25,3.11,3.25.64,0,1.28-.13,1.7-.34l.22.83Z"
           id="path103" />
      </g>
      <rect
         class="cls-2"
         x="402.26"
         y="1"
         width="40.75"
         height="61.87"
         id="rect103" />
    </g>
  </g>
</svg>
