<?xml version="1.0" encoding="UTF-8" standalone="no"?>
<svg
   id="_Слой_2"
   data-name="Слой 2"
   viewBox="0 0 1832.64 242.51"
   version="1.1"
   sodipodi:docname="4 эт миллионы.svg"
   inkscape:version="1.4.3 (0d15f75, 2025-12-25)"
   xmlns:inkscape="http://www.inkscape.org/namespaces/inkscape"
   xmlns:sodipodi="http://sodipodi.sourceforge.net/DTD/sodipodi-0.dtd"
   xmlns="http://www.w3.org/2000/svg"
   xmlns:svg="http://www.w3.org/2000/svg">
  <sodipodi:namedview
     id="namedview111"
     pagecolor="#ffffff"
     bordercolor="#000000"
     borderopacity="0.25"
     inkscape:showpageshadow="2"
     inkscape:pageopacity="0.0"
     inkscape:pagecheckerboard="0"
     inkscape:deskcolor="#d1d1d1"
     inkscape:zoom="2.6366335"
     inkscape:cx="1586.1135"
     inkscape:cy="24.083742"
     inkscape:window-width="2560"
     inkscape:window-height="1369"
     inkscape:window-x="-8"
     inkscape:window-y="-8"
     inkscape:window-maximized="1"
     inkscape:current-layer="_Слой_2-2" />
  <defs
     id="defs1">
    <style
       id="style1">
      .cls-1 {
        fill: none;
      }

      .cls-2 {
        fill: none;
        stroke: #ffffff;
        stroke-miterlimit: 10;
        stroke-width: 2px;
      }
    </style>
  </defs>
  <g
     id="_Слой_2-2"
     data-name="Слой 2">
    <g
       id="g111">
      <g
         id="g107">
        <rect
           class="cls-2"
           x="1"
           y="1"
           width="1830.64"
           height="240.51"
           id="rect1" />
        <g
           id="g7">
          <rect
             class="cls-2"
             x="542.68"
             y="12.83"
             width="4.98"
             height="20.21"
             id="rect2" />
          <rect
             class="cls-2"
             x="537.7"
             y="12.83"
             width="4.98"
             height="20.21"
             id="rect3" />
          <rect
             class="cls-2"
             x="532.72"
             y="12.83"
             width="4.98"
             height="20.21"
             id="rect4" />
          <rect
             class="cls-2"
             x="527.74"
             y="12.83"
             width="4.98"
             height="20.21"
             id="rect5" />
          <rect
             class="cls-2"
             x="522.77"
             y="12.83"
             width="4.98"
             height="20.21"
             id="rect6" />
          <rect
             class="cls-2"
             x="517.79"
             y="12.83"
             width="4.98"
             height="20.21"
             id="rect7" />
        </g>
        <g
           id="g13">
          <rect
             class="cls-2"
             x="512.81"
             y="12.83"
             width="4.98"
             height="20.21"
             id="rect8" />
          <rect
             class="cls-2"
             x="507.83"
             y="12.83"
             width="4.98"
             height="20.21"
             id="rect9" />
          <rect
             class="cls-2"
             x="502.85"
             y="12.83"
             width="4.98"
             height="20.21"
             id="rect10" />
          <rect
             class="cls-2"
             x="497.87"
             y="12.83"
             width="4.98"
             height="20.21"
             id="rect11" />
          <rect
             class="cls-2"
             x="492.89"
             y="12.83"
             width="4.98"
             height="20.21"
             id="rect12" />
          <rect
             class="cls-2"
             x="487.91"
             y="12.83"
             width="4.98"
             height="20.21"
             id="rect13" />
        </g>
        <g
           id="g19">
          <rect
             class="cls-2"
             x="542.68"
             y="72.55"
             width="4.98"
             height="20.21"
             id="rect14" />
          <rect
             class="cls-2"
             x="537.7"
             y="72.55"
             width="4.98"
             height="20.21"
             id="rect15" />
          <rect
             class="cls-2"
             x="532.72"
             y="72.55"
             width="4.98"
             height="20.21"
             id="rect16" />
          <rect
             class="cls-2"
             x="527.74"
             y="72.55"
             width="4.98"
             height="20.21"
             id="rect17" />
          <rect
             class="cls-2"
             x="522.77"
             y="72.55"
             width="4.98"
             height="20.21"
             id="rect18" />
          <rect
             class="cls-2"
             x="517.79"
             y="72.55"
             width="4.98"
             height="20.21"
             id="rect19" />
        </g>
        <g
           id="g25">
          <rect
             class="cls-2"
             x="512.81"
             y="72.55"
             width="4.98"
             height="20.21"
             id="rect20" />
          <rect
             class="cls-2"
             x="507.83"
             y="72.55"
             width="4.98"
             height="20.21"
             id="rect21" />
          <rect
             class="cls-2"
             x="502.85"
             y="72.55"
             width="4.98"
             height="20.21"
             id="rect22" />
          <rect
             class="cls-2"
             x="497.87"
             y="72.55"
             width="4.98"
             height="20.21"
             id="rect23" />
          <rect
             class="cls-2"
             x="492.89"
             y="72.55"
             width="4.98"
             height="20.21"
             id="rect24" />
          <rect
             class="cls-2"
             x="487.91"
             y="72.55"
             width="4.98"
             height="20.21"
             id="rect25" />
        </g>
        <g
           id="g31">
          <rect
             class="cls-2"
             x="542.68"
             y="37.22"
             width="4.98"
             height="31.15"
             id="rect26" />
          <rect
             class="cls-2"
             x="537.7"
             y="37.22"
             width="4.98"
             height="31.15"
             id="rect27" />
          <rect
             class="cls-2"
             x="532.72"
             y="37.22"
             width="4.98"
             height="31.15"
             id="rect28" />
          <rect
             class="cls-2"
             x="527.74"
             y="37.22"
             width="4.98"
             height="31.15"
             id="rect29" />
          <rect
             class="cls-2"
             x="522.77"
             y="37.22"
             width="4.98"
             height="31.15"
             id="rect30" />
          <rect
             class="cls-2"
             x="517.79"
             y="37.22"
             width="4.98"
             height="31.15"
             id="rect31" />
        </g>
        <g
           id="g37">
          <rect
             class="cls-2"
             x="512.81"
             y="37.22"
             width="4.98"
             height="31.15"
             id="rect32" />
          <rect
             class="cls-2"
             x="507.83"
             y="37.22"
             width="4.98"
             height="31.15"
             id="rect33" />
          <rect
             class="cls-2"
             x="502.85"
             y="37.22"
             width="4.98"
             height="31.15"
             id="rect34" />
          <rect
             class="cls-2"
             x="497.87"
             y="37.22"
             width="4.98"
             height="31.15"
             id="rect35" />
          <rect
             class="cls-2"
             x="492.89"
             y="37.22"
             width="4.98"
             height="31.15"
             id="rect36" />
          <rect
             class="cls-2"
             x="487.91"
             y="37.22"
             width="4.98"
             height="31.15"
             id="rect37" />
        </g>
        <g
           id="g43">
          <rect
             class="cls-2"
             x="1369.53"
             y="12.83"
             width="4.98"
             height="20.21"
             id="rect38" />
          <rect
             class="cls-2"
             x="1364.55"
             y="12.83"
             width="4.98"
             height="20.21"
             id="rect39" />
          <rect
             class="cls-2"
             x="1359.57"
             y="12.83"
             width="4.98"
             height="20.21"
             id="rect40" />
          <rect
             class="cls-2"
             x="1354.6"
             y="12.83"
             width="4.98"
             height="20.21"
             id="rect41" />
          <rect
             class="cls-2"
             x="1349.62"
             y="12.83"
             width="4.98"
             height="20.21"
             id="rect42" />
          <rect
             class="cls-2"
             x="1344.64"
             y="12.83"
             width="4.98"
             height="20.21"
             id="rect43" />
        </g>
        <g
           id="g49">
          <rect
             class="cls-2"
             x="1339.66"
             y="12.83"
             width="4.98"
             height="20.21"
             id="rect44" />
          <rect
             class="cls-2"
             x="1334.68"
             y="12.83"
             width="4.98"
             height="20.21"
             id="rect45" />
          <rect
             class="cls-2"
             x="1329.7"
             y="12.83"
             width="4.98"
             height="20.21"
             id="rect46" />
          <rect
             class="cls-2"
             x="1324.72"
             y="12.83"
             width="4.98"
             height="20.21"
             id="rect47" />
          <rect
             class="cls-2"
             x="1319.74"
             y="12.83"
             width="4.98"
             height="20.21"
             id="rect48" />
          <rect
             class="cls-2"
             x="1314.77"
             y="12.83"
             width="4.98"
             height="20.21"
             id="rect49" />
        </g>
        <g
           id="g55">
          <rect
             class="cls-2"
             x="1369.53"
             y="72.55"
             width="4.98"
             height="20.21"
             id="rect50" />
          <rect
             class="cls-2"
             x="1364.55"
             y="72.55"
             width="4.98"
             height="20.21"
             id="rect51" />
          <rect
             class="cls-2"
             x="1359.57"
             y="72.55"
             width="4.98"
             height="20.21"
             id="rect52" />
          <rect
             class="cls-2"
             x="1354.6"
             y="72.55"
             width="4.98"
             height="20.21"
             id="rect53" />
          <rect
             class="cls-2"
             x="1349.62"
             y="72.55"
             width="4.98"
             height="20.21"
             id="rect54" />
          <rect
             class="cls-2"
             x="1344.64"
             y="72.55"
             width="4.98"
             height="20.21"
             id="rect55" />
        </g>
        <g
           id="g61">
          <rect
             class="cls-2"
             x="1339.66"
             y="72.55"
             width="4.98"
             height="20.21"
             id="rect56" />
          <rect
             class="cls-2"
             x="1334.68"
             y="72.55"
             width="4.98"
             height="20.21"
             id="rect57" />
          <rect
             class="cls-2"
             x="1329.7"
             y="72.55"
             width="4.98"
             height="20.21"
             id="rect58" />
          <rect
             class="cls-2"
             x="1324.72"
             y="72.55"
             width="4.98"
             height="20.21"
             id="rect59" />
          <rect
             class="cls-2"
             x="1319.74"
             y="72.55"
             width="4.98"
             height="20.21"
             id="rect60" />
          <rect
             class="cls-2"
             x="1314.77"
             y="72.55"
             width="4.98"
             height="20.21"
             id="rect61" />
        </g>
        <g
           id="g67">
          <rect
             class="cls-2"
             x="1369.53"
             y="37.22"
             width="4.98"
             height="31.15"
             id="rect62" />
          <rect
             class="cls-2"
             x="1364.55"
             y="37.22"
             width="4.98"
             height="31.15"
             id="rect63" />
          <rect
             class="cls-2"
             x="1359.57"
             y="37.22"
             width="4.98"
             height="31.15"
             id="rect64" />
          <rect
             class="cls-2"
             x="1354.6"
             y="37.22"
             width="4.98"
             height="31.15"
             id="rect65" />
          <rect
             class="cls-2"
             x="1349.62"
             y="37.22"
             width="4.98"
             height="31.15"
             id="rect66" />
          <rect
             class="cls-2"
             x="1344.64"
             y="37.22"
             width="4.98"
             height="31.15"
             id="rect67" />
        </g>
        <g
           id="g73">
          <rect
             class="cls-2"
             x="1339.66"
             y="37.22"
             width="4.98"
             height="31.15"
             id="rect68" />
          <rect
             class="cls-2"
             x="1334.68"
             y="37.22"
             width="4.98"
             height="31.15"
             id="rect69" />
          <rect
             class="cls-2"
             x="1329.7"
             y="37.22"
             width="4.98"
             height="31.15"
             id="rect70" />
          <rect
             class="cls-2"
             x="1324.72"
             y="37.22"
             width="4.98"
             height="31.15"
             id="rect71" />
          <rect
             class="cls-2"
             x="1319.74"
             y="37.22"
             width="4.98"
             height="31.15"
             id="rect72" />
          <rect
             class="cls-2"
             x="1314.77"
             y="37.22"
             width="4.98"
             height="31.15"
             id="rect73" />
        </g>
        <rect
           class="cls-2"
           x="1"
           y="1"
           width="442"
           height="102.26"
           id="rect74" />
        <rect
           class="cls-2"
           x="1"
           y="141.55"
           width="136.3"
           height="99.96"
           id="rect75" />
        <rect
           class="cls-2"
           x="276.55"
           y="141.55"
           width="160.57"
           height="99.96"
           id="rect76" />
        <rect
           class="cls-2"
           x="137.3"
           y="141.55"
           width="139.26"
           height="99.96"
           id="rect77" />
        <rect
           class="cls-2"
           x="397.72"
           y="141.55"
           width="239.94"
           height="99.96"
           id="rect78" />
        <rect
           class="cls-2"
           x="637.66"
           y="141.55"
           width="176.89"
           height="99.96"
           id="rect79" />
        <rect
           class="cls-2"
           x="985.2674"
           y="142.89093"
           width="700.11249"
           height="98.619072"
           id="rect80" />
        <rect
           class="cls-2"
           x="1685.246"
           y="142.75684"
           width="146.39398"
           height="98.753174"
           id="rect82" />
        <polyline
           class="cls-2"
           points="1374.51 1 1601.15 1 1601.15 103.26 1374.51 103.26"
           id="polyline87" />
        <rect
           class="cls-2"
           x="1601.15"
           y="1"
           width="46.13"
           height="102.26"
           id="rect88" />
        <rect
           class="cls-2"
           x="1785.66"
           y="1"
           width="45.98"
           height="102.26"
           id="rect89" />
        <rect
           class="cls-2"
           x="1647.28"
           y="1"
           width="138.38"
           height="102.26"
           id="rect90" />
        <rect
           class="cls-2"
           x="1428.89"
           y="1"
           width="40.85"
           height="102.26"
           id="rect91" />
        <rect
           class="cls-2"
           x="1396.55"
           y="1"
           width="32.34"
           height="102.26"
           id="rect92" />
        <rect
           class="cls-2"
           x="443"
           y="1"
           width="104.66"
           height="102.26"
           id="rect93" />
        <line
           class="cls-2"
           x1="1314.77"
           y1="103.26"
           x2="1314.77"
           y2="1"
           id="line93" />
        <line
           class="cls-2"
           x1="637.66"
           y1="103.26"
           x2="1374.51"
           y2="103.26"
           id="line94" />
        <line
           class="cls-2"
           x1="547.66"
           y1="103.26"
           x2="640.3"
           y2="103.26"
           id="line95" />
        <line
           class="cls-2"
           x1="640.3"
           y1="103.26"
           x2="640.3"
           y2="1"
           id="line96" />
        <line
           class="cls-2"
           x1="765.06"
           y1="103.26"
           x2="765.06"
           y2="1"
           id="line97" />
        <line
           class="cls-2"
           x1="810.34"
           y1="103.26"
           x2="810.34"
           y2="1"
           id="line98" />
        <line
           class="cls-2"
           x1="985"
           y1="103.26"
           x2="985"
           y2="1"
           id="line99" />
        <line
           class="cls-2"
           x1="765.06"
           y1="241.51"
           x2="765.06"
           y2="140.19"
           id="line102" />
        <line
           class="cls-2"
           x1="443"
           y1="103.26"
           x2="443"
           y2="1"
           id="line103" />
        <line
           class="cls-2"
           x1="402.26"
           y1="103.26"
           x2="402.26"
           y2="1"
           id="line104" />
        <line
           class="cls-2"
           x1="443"
           y1="62.87"
           x2="402.26"
           y2="62.87"
           id="line105" />
        <rect
           class="cls-2"
           x="277.98"
           y="1"
           width="84.46"
           height="102.26"
           id="rect105" />
        <rect
           class="cls-2"
           x="192.1"
           y="1"
           width="42.99"
           height="102.26"
           id="rect106" />
        <line
           class="cls-2"
           x1="1645.7295"
           y1="142.35455"
           x2="1645.7295"
           y2="241.18456"
           id="line106" />
        <line
           class="cls-2"
           x1="101.55"
           y1="140.19"
           x2="101.55"
           y2="103.26"
           id="line107" />
      </g>
      <g
         id="g108">
        <path
           class="cls-1"
           d="M1443.1,56.18l-2.05-8.08h1.1l.96,4.09c.24,1.01.46,2.02.6,2.79h.02c.13-.8.38-1.76.66-2.81l1.08-4.08h1.09l.98,4.1c.23.96.44,1.92.56,2.77h.02c.17-.89.4-1.79.65-2.79l1.07-4.08h1.07l-2.29,8.08h-1.09l-1.02-4.21c-.25-1.03-.42-1.82-.53-2.64h-.02c-.14.8-.32,1.6-.62,2.64l-1.15,4.21h-1.09Z"
           id="path107" />
        <path
           class="cls-1"
           d="M1457.58,55.91c-.38.19-1.15.38-2.13.38-2.28,0-3.99-1.44-3.99-4.09s1.71-4.25,4.22-4.25c1.01,0,1.64.22,1.92.36l-.25.85c-.4-.19-.96-.34-1.63-.34-1.89,0-3.15,1.21-3.15,3.33,0,1.98,1.14,3.25,3.11,3.25.64,0,1.28-.13,1.7-.34l.22.83Z"
           id="path108" />
      </g>
      <g
         id="g110">
        <path
           class="cls-1"
           d="M416.41,35.98l-2.05-8.08h1.1l.96,4.09c.24,1.01.46,2.02.6,2.79h.02c.13-.8.38-1.76.66-2.81l1.08-4.08h1.09l.98,4.1c.23.96.44,1.92.56,2.77h.02c.17-.89.4-1.79.65-2.79l1.07-4.08h1.07l-2.29,8.08h-1.09l-1.02-4.21c-.25-1.03-.42-1.82-.53-2.64h-.02c-.14.8-.32,1.6-.62,2.64l-1.15,4.21h-1.09Z"
           id="path109" />
        <path
           class="cls-1"
           d="M430.89,35.72c-.38.19-1.15.38-2.13.38-2.28,0-3.99-1.44-3.99-4.09s1.71-4.25,4.22-4.25c1.01,0,1.64.22,1.92.36l-.25.85c-.4-.19-.96-.34-1.63-.34-1.89,0-3.15,1.21-3.15,3.33,0,1.98,1.14,3.25,3.11,3.25.64,0,1.28-.13,1.7-.34l.22.83Z"
           id="path110" />
      </g>
    </g>
    <line
       class="cls-2"
       x1="1170.7426"
       y1="1.1482733"
       x2="1170.7426"
       y2="102.92831"
       id="line106-1"
       style="fill:none;stroke:#1d1d1b;stroke-width:2.00191px;stroke-miterlimit:10" />
    <line
       class="cls-2"
       x1="1170.1862"
       y1="142.70903"
       x2="1170.1862"
       y2="241.53903"
       id="line106-3"
       style="fill:none;stroke:#1d1d1b;stroke-width:1.97268px;stroke-miterlimit:10" />
    <line
       class="cls-2"
       x1="1364.5488"
       y1="142.47919"
       x2="1364.5488"
       y2="241.30919"
       id="line106-4"
       style="fill:none;stroke:#1d1d1b;stroke-width:1.97268px;stroke-miterlimit:10" />
    <line
       class="cls-2"
       x1="1330.058"
       y1="142.72742"
       x2="1330.058"
       y2="241.55742"
       id="line106-7"
       style="fill:none;stroke:#1d1d1b;stroke-width:1.97268px;stroke-miterlimit:10" />
    <line
       class="cls-2"
       x1="1019.8234"
       y1="142.82576"
       x2="1019.8234"
       y2="241.65576"
       id="line106-19"
       style="fill:none;stroke:#1d1d1b;stroke-width:1.97268px;stroke-miterlimit:10" />
    <line
       class="cls-2"
       x1="1500.3667"
       y1="142.10251"
       x2="1500.3667"
       y2="240.93251"
       id="line106-5"
       style="fill:none;stroke:#1d1d1b;stroke-width:1.97268px;stroke-miterlimit:10" />
  </g>
</svg>
