<?xml version="1.0" encoding="UTF-8"?>
<svg id="_Слой_2" data-name="Слой 2" xmlns="http://www.w3.org/2000/svg" viewBox="0 0 1832.64 242.51">
  <defs>
    <style>
      .cls-1 {
        fill: none;
      }

      .cls-2 {
        fill: none;
        stroke: #FFFFFF;
        stroke-miterlimit: 10;
        stroke-width: 2px;
      }
    </style>
  </defs>
  <g id="_Слой_2-2" data-name="Слой 2">
    <g>
      <g>
        <rect class="cls-2" x="1" y="1" width="1830.64" height="240.51"/>
        <g>
          <rect class="cls-2" x="542.68" y="12.83" width="4.98" height="20.21"/>
          <rect class="cls-2" x="537.7" y="12.83" width="4.98" height="20.21"/>
          <rect class="cls-2" x="532.72" y="12.83" width="4.98" height="20.21"/>
          <rect class="cls-2" x="527.74" y="12.83" width="4.98" height="20.21"/>
          <rect class="cls-2" x="522.77" y="12.83" width="4.98" height="20.21"/>
          <rect class="cls-2" x="517.79" y="12.83" width="4.98" height="20.21"/>
        </g>
        <g>
          <rect class="cls-2" x="512.81" y="12.83" width="4.98" height="20.21"/>
          <rect class="cls-2" x="507.83" y="12.83" width="4.98" height="20.21"/>
          <rect class="cls-2" x="502.85" y="12.83" width="4.98" height="20.21"/>
          <rect class="cls-2" x="497.87" y="12.83" width="4.98" height="20.21"/>
          <rect class="cls-2" x="492.89" y="12.83" width="4.98" height="20.21"/>
          <rect class="cls-2" x="487.91" y="12.83" width="4.98" height="20.21"/>
        </g>
        <g>
          <rect class="cls-2" x="542.68" y="72.55" width="4.98" height="20.21"/>
          <rect class="cls-2" x="537.7" y="72.55" width="4.98" height="20.21"/>
          <rect class="cls-2" x="532.72" y="72.55" width="4.98" height="20.21"/>
          <rect class="cls-2" x="527.74" y="72.55" width="4.98" height="20.21"/>
          <rect class="cls-2" x="522.77" y="72.55" width="4.98" height="20.21"/>
          <rect class="cls-2" x="517.79" y="72.55" width="4.98" height="20.21"/>
        </g>
        <g>
          <rect class="cls-2" x="512.81" y="72.55" width="4.98" height="20.21"/>
          <rect class="cls-2" x="507.83" y="72.55" width="4.98" height="20.21"/>
          <rect class="cls-2" x="502.85" y="72.55" width="4.98" height="20.21"/>
          <rect class="cls-2" x="497.87" y="72.55" width="4.98" height="20.21"/>
          <rect class="cls-2" x="492.89" y="72.55" width="4.98" height="20.21"/>
          <rect class="cls-2" x="487.91" y="72.55" width="4.98" height="20.21"/>
        </g>
        <g>
          <rect class="cls-2" x="542.68" y="37.22" width="4.98" height="31.15"/>
          <rect class="cls-2" x="537.7" y="37.22" width="4.98" height="31.15"/>
          <rect class="cls-2" x="532.72" y="37.22" width="4.98" height="31.15"/>
          <rect class="cls-2" x="527.74" y="37.22" width="4.98" height="31.15"/>
          <rect class="cls-2" x="522.77" y="37.22" width="4.98" height="31.15"/>
          <rect class="cls-2" x="517.79" y="37.22" width="4.98" height="31.15"/>
        </g>
        <g>
          <rect class="cls-2" x="512.81" y="37.22" width="4.98" height="31.15"/>
          <rect class="cls-2" x="507.83" y="37.22" width="4.98" height="31.15"/>
          <rect class="cls-2" x="502.85" y="37.22" width="4.98" height="31.15"/>
          <rect class="cls-2" x="497.87" y="37.22" width="4.98" height="31.15"/>
          <rect class="cls-2" x="492.89" y="37.22" width="4.98" height="31.15"/>
          <rect class="cls-2" x="487.91" y="37.22" width="4.98" height="31.15"/>
        </g>
        <g>
          <rect class="cls-2" x="1369.53" y="12.83" width="4.98" height="20.21"/>
          <rect class="cls-2" x="1364.55" y="12.83" width="4.98" height="20.21"/>
          <rect class="cls-2" x="1359.57" y="12.83" width="4.98" height="20.21"/>
          <rect class="cls-2" x="1354.6" y="12.83" width="4.98" height="20.21"/>
          <rect class="cls-2" x="1349.62" y="12.83" width="4.98" height="20.21"/>
          <rect class="cls-2" x="1344.64" y="12.83" width="4.98" height="20.21"/>
        </g>
        <g>
          <rect class="cls-2" x="1339.66" y="12.83" width="4.98" height="20.21"/>
          <rect class="cls-2" x="1334.68" y="12.83" width="4.98" height="20.21"/>
          <rect class="cls-2" x="1329.7" y="12.83" width="4.98" height="20.21"/>
          <rect class="cls-2" x="1324.72" y="12.83" width="4.98" height="20.21"/>
          <rect class="cls-2" x="1319.74" y="12.83" width="4.98" height="20.21"/>
          <rect class="cls-2" x="1314.77" y="12.83" width="4.98" height="20.21"/>
        </g>
        <g>
          <rect class="cls-2" x="1369.53" y="72.55" width="4.98" height="20.21"/>
          <rect class="cls-2" x="1364.55" y="72.55" width="4.98" height="20.21"/>
          <rect class="cls-2" x="1359.57" y="72.55" width="4.98" height="20.21"/>
          <rect class="cls-2" x="1354.6" y="72.55" width="4.98" height="20.21"/>
          <rect class="cls-2" x="1349.62" y="72.55" width="4.98" height="20.21"/>
          <rect class="cls-2" x="1344.64" y="72.55" width="4.98" height="20.21"/>
        </g>
        <g>
          <rect class="cls-2" x="1339.66" y="72.55" width="4.98" height="20.21"/>
          <rect class="cls-2" x="1334.68" y="72.55" width="4.98" height="20.21"/>
          <rect class="cls-2" x="1329.7" y="72.55" width="4.98" height="20.21"/>
          <rect class="cls-2" x="1324.72" y="72.55" width="4.98" height="20.21"/>
          <rect class="cls-2" x="1319.74" y="72.55" width="4.98" height="20.21"/>
          <rect class="cls-2" x="1314.77" y="72.55" width="4.98" height="20.21"/>
        </g>
        <g>
          <rect class="cls-2" x="1369.53" y="37.22" width="4.98" height="31.15"/>
          <rect class="cls-2" x="1364.55" y="37.22" width="4.98" height="31.15"/>
          <rect class="cls-2" x="1359.57" y="37.22" width="4.98" height="31.15"/>
          <rect class="cls-2" x="1354.6" y="37.22" width="4.98" height="31.15"/>
          <rect class="cls-2" x="1349.62" y="37.22" width="4.98" height="31.15"/>
          <rect class="cls-2" x="1344.64" y="37.22" width="4.98" height="31.15"/>
        </g>
        <g>
          <rect class="cls-2" x="1339.66" y="37.22" width="4.98" height="31.15"/>
          <rect class="cls-2" x="1334.68" y="37.22" width="4.98" height="31.15"/>
          <rect class="cls-2" x="1329.7" y="37.22" width="4.98" height="31.15"/>
          <rect class="cls-2" x="1324.72" y="37.22" width="4.98" height="31.15"/>
          <rect class="cls-2" x="1319.74" y="37.22" width="4.98" height="31.15"/>
          <rect class="cls-2" x="1314.77" y="37.22" width="4.98" height="31.15"/>
        </g>
        <rect class="cls-2" x="1" y="1" width="442" height="102.26"/>
        <rect class="cls-2" x="1" y="141.55" width="136.3" height="99.96"/>
        <rect class="cls-2" x="276.55" y="141.55" width="160.57" height="99.96"/>
        <rect class="cls-2" x="137.3" y="141.55" width="139.26" height="99.96"/>
        <rect class="cls-2" x="397.72" y="141.55" width="239.94" height="99.96"/>
        <rect class="cls-2" x="637.66" y="141.55" width="176.89" height="99.96"/>
        <rect class="cls-2" x="1110.51" y="141.55" width="574.87" height="99.96"/>
        <rect class="cls-2" x="985" y="141.55" width="88.3" height="99.96" transform="translate(2058.3 383.06) rotate(180)"/>
        <rect class="cls-2" x="1685.38" y="141.55" width="146.26" height="99.96"/>
        <rect class="cls-2" x="1496.96" y="141.55" width="41.98" height="99.96"/>
        <rect class="cls-2" x="1440.64" y="141.55" width="56.32" height="99.96"/>
        <rect class="cls-2" x="1391.49" y="141.55" width="49.15" height="99.96"/>
        <rect class="cls-2" x="1342.47" y="141.55" width="49.15" height="99.96"/>
        <rect class="cls-2" x="1160.89" y="141.55" width="149.62" height="99.96"/>
        <polyline class="cls-2" points="1374.51 1 1601.15 1 1601.15 103.26 1374.51 103.26"/>
        <rect class="cls-2" x="1601.15" y="1" width="46.13" height="102.26"/>
        <rect class="cls-2" x="1785.66" y="1" width="45.98" height="102.26"/>
        <rect class="cls-2" x="1647.28" y="1" width="138.38" height="102.26"/>
        <rect class="cls-2" x="1428.89" y="1" width="40.85" height="102.26"/>
        <rect class="cls-2" x="1396.55" y="1" width="32.34" height="102.26"/>
        <rect class="cls-2" x="443" y="1" width="104.66" height="102.26"/>
        <line class="cls-2" x1="1314.77" y1="103.26" x2="1314.77" y2="1"/>
        <line class="cls-2" x1="637.66" y1="103.26" x2="1374.51" y2="103.26"/>
        <line class="cls-2" x1="547.66" y1="103.26" x2="640.3" y2="103.26"/>
        <line class="cls-2" x1="640.3" y1="103.26" x2="640.3" y2="1"/>
        <line class="cls-2" x1="765.06" y1="103.26" x2="765.06" y2="1"/>
        <line class="cls-2" x1="810.34" y1="103.26" x2="810.34" y2="1"/>
        <line class="cls-2" x1="985" y1="103.26" x2="985" y2="1"/>
        <line class="cls-2" x1="1162.32" y1="103.26" x2="1162.32" y2="1.3"/>
        <line class="cls-2" x1="1073.3" y1="141.55" x2="1112.64" y2="141.55"/>
        <line class="cls-2" x1="765.06" y1="241.51" x2="765.06" y2="140.19"/>
        <line class="cls-2" x1="443" y1="103.26" x2="443" y2="1"/>
        <line class="cls-2" x1="402.26" y1="103.26" x2="402.26" y2="1"/>
        <line class="cls-2" x1="443" y1="62.87" x2="402.26" y2="62.87"/>
        <rect class="cls-2" x="277.98" y="1" width="84.46" height="102.26"/>
        <rect class="cls-2" x="192.1" y="1" width="42.99" height="102.26"/>
        <line class="cls-2" x1="1635.34" y1="141.55" x2="1635.34" y2="240.38"/>
        <line class="cls-2" x1="101.55" y1="140.19" x2="101.55" y2="103.26"/>
      </g>
      <g>
        <path class="cls-1" d="M1443.1,56.18l-2.05-8.08h1.1l.96,4.09c.24,1.01.46,2.02.6,2.79h.02c.13-.8.38-1.76.66-2.81l1.08-4.08h1.09l.98,4.1c.23.96.44,1.92.56,2.77h.02c.17-.89.4-1.79.65-2.79l1.07-4.08h1.07l-2.29,8.08h-1.09l-1.02-4.21c-.25-1.03-.42-1.82-.53-2.64h-.02c-.14.8-.32,1.6-.62,2.64l-1.15,4.21h-1.09Z"/>
        <path class="cls-1" d="M1457.58,55.91c-.38.19-1.15.38-2.13.38-2.28,0-3.99-1.44-3.99-4.09s1.71-4.25,4.22-4.25c1.01,0,1.64.22,1.92.36l-.25.85c-.4-.19-.96-.34-1.63-.34-1.89,0-3.15,1.21-3.15,3.33,0,1.98,1.14,3.25,3.11,3.25.64,0,1.28-.13,1.7-.34l.22.83Z"/>
      </g>
      <g>
        <path class="cls-1" d="M416.41,35.98l-2.05-8.08h1.1l.96,4.09c.24,1.01.46,2.02.6,2.79h.02c.13-.8.38-1.76.66-2.81l1.08-4.08h1.09l.98,4.1c.23.96.44,1.92.56,2.77h.02c.17-.89.4-1.79.65-2.79l1.07-4.08h1.07l-2.29,8.08h-1.09l-1.02-4.21c-.25-1.03-.42-1.82-.53-2.64h-.02c-.14.8-.32,1.6-.62,2.64l-1.15,4.21h-1.09Z"/>
        <path class="cls-1" d="M430.89,35.72c-.38.19-1.15.38-2.13.38-2.28,0-3.99-1.44-3.99-4.09s1.71-4.25,4.22-4.25c1.01,0,1.64.22,1.92.36l-.25.85c-.4-.19-.96-.34-1.63-.34-1.89,0-3.15,1.21-3.15,3.33,0,1.98,1.14,3.25,3.11,3.25.64,0,1.28-.13,1.7-.34l.22.83Z"/>
      </g>
    </g>
  </g>
</svg>
