<?xml version="1.0" encoding="UTF-8"?>
<svg id="_Слой_2" data-name="Слой 2" xmlns="http://www.w3.org/2000/svg" viewBox="0 0 1832.64 435.87">
  <defs>
    <style>
      .cls-1 {
        fill: none;
      }

      .cls-2 {
        fill: none;
        stroke: #FFFFFF;
        stroke-miterlimit: 10;
        stroke-width: 2px;
      }
    </style>
  </defs>
  <g id="_Слой_2-2" data-name="Слой 2">
    <g>
      <rect class="cls-2" x="1" y="1" width="1830.64" height="240.51"/>
      <rect class="cls-2" x="893.85" y="241.51" width="78.89" height="83.74"/>
      <rect class="cls-2" x="880.83" y="325.26" width="104.17" height="101.87"/>
      <g>
        <rect class="cls-2" x="881.02" y="431.06" width="103.98" height="3.81"/>
        <rect class="cls-2" x="880.83" y="427.13" width="103.98" height="3.81"/>
      </g>
      <g>
        <rect class="cls-2" x="542.68" y="12.83" width="4.98" height="20.21"/>
        <rect class="cls-2" x="537.7" y="12.83" width="4.98" height="20.21"/>
        <rect class="cls-2" x="532.72" y="12.83" width="4.98" height="20.21"/>
        <rect class="cls-2" x="527.74" y="12.83" width="4.98" height="20.21"/>
        <rect class="cls-2" x="522.77" y="12.83" width="4.98" height="20.21"/>
        <rect class="cls-2" x="517.79" y="12.83" width="4.98" height="20.21"/>
      </g>
      <g>
        <rect class="cls-2" x="512.81" y="12.83" width="4.98" height="20.21"/>
        <rect class="cls-2" x="507.83" y="12.83" width="4.98" height="20.21"/>
        <rect class="cls-2" x="502.85" y="12.83" width="4.98" height="20.21"/>
        <rect class="cls-2" x="497.87" y="12.83" width="4.98" height="20.21"/>
        <rect class="cls-2" x="492.89" y="12.83" width="4.98" height="20.21"/>
        <rect class="cls-2" x="487.91" y="12.83" width="4.98" height="20.21"/>
      </g>
      <g>
        <rect class="cls-2" x="542.68" y="72.55" width="4.98" height="20.21"/>
        <rect class="cls-2" x="537.7" y="72.55" width="4.98" height="20.21"/>
        <rect class="cls-2" x="532.72" y="72.55" width="4.98" height="20.21"/>
        <rect class="cls-2" x="527.74" y="72.55" width="4.98" height="20.21"/>
        <rect class="cls-2" x="522.77" y="72.55" width="4.98" height="20.21"/>
        <rect class="cls-2" x="517.79" y="72.55" width="4.98" height="20.21"/>
      </g>
      <g>
        <rect class="cls-2" x="512.81" y="72.55" width="4.98" height="20.21"/>
        <rect class="cls-2" x="507.83" y="72.55" width="4.98" height="20.21"/>
        <rect class="cls-2" x="502.85" y="72.55" width="4.98" height="20.21"/>
        <rect class="cls-2" x="497.87" y="72.55" width="4.98" height="20.21"/>
        <rect class="cls-2" x="492.89" y="72.55" width="4.98" height="20.21"/>
        <rect class="cls-2" x="487.91" y="72.55" width="4.98" height="20.21"/>
      </g>
      <g>
        <rect class="cls-2" x="601.72" y="197.09" width="4.98" height="20.21" transform="translate(811.4 -397.02) rotate(90)"/>
        <rect class="cls-2" x="601.72" y="192.11" width="4.98" height="20.21" transform="translate(806.43 -402) rotate(90)"/>
        <rect class="cls-2" x="601.72" y="187.13" width="4.98" height="20.21" transform="translate(801.45 -406.98) rotate(90)"/>
        <rect class="cls-2" x="601.72" y="182.15" width="4.98" height="20.21" transform="translate(796.47 -411.96) rotate(90)"/>
        <rect class="cls-2" x="601.72" y="177.17" width="4.98" height="20.21" transform="translate(791.49 -416.94) rotate(90)"/>
        <rect class="cls-2" x="601.72" y="172.19" width="4.98" height="20.21" transform="translate(786.51 -421.91) rotate(90)"/>
      </g>
      <g>
        <rect class="cls-2" x="542.68" y="37.22" width="4.98" height="31.15"/>
        <rect class="cls-2" x="537.7" y="37.22" width="4.98" height="31.15"/>
        <rect class="cls-2" x="532.72" y="37.22" width="4.98" height="31.15"/>
        <rect class="cls-2" x="527.74" y="37.22" width="4.98" height="31.15"/>
        <rect class="cls-2" x="522.77" y="37.22" width="4.98" height="31.15"/>
        <rect class="cls-2" x="517.79" y="37.22" width="4.98" height="31.15"/>
      </g>
      <g>
        <rect class="cls-2" x="512.81" y="37.22" width="4.98" height="31.15"/>
        <rect class="cls-2" x="507.83" y="37.22" width="4.98" height="31.15"/>
        <rect class="cls-2" x="502.85" y="37.22" width="4.98" height="31.15"/>
        <rect class="cls-2" x="497.87" y="37.22" width="4.98" height="31.15"/>
        <rect class="cls-2" x="492.89" y="37.22" width="4.98" height="31.15"/>
        <rect class="cls-2" x="487.91" y="37.22" width="4.98" height="31.15"/>
      </g>
      <g>
        <rect class="cls-2" x="1369.53" y="12.83" width="4.98" height="20.21"/>
        <rect class="cls-2" x="1364.55" y="12.83" width="4.98" height="20.21"/>
        <rect class="cls-2" x="1359.57" y="12.83" width="4.98" height="20.21"/>
        <rect class="cls-2" x="1354.6" y="12.83" width="4.98" height="20.21"/>
        <rect class="cls-2" x="1349.62" y="12.83" width="4.98" height="20.21"/>
        <rect class="cls-2" x="1344.64" y="12.83" width="4.98" height="20.21"/>
      </g>
      <g>
        <rect class="cls-2" x="1339.66" y="12.83" width="4.98" height="20.21"/>
        <rect class="cls-2" x="1334.68" y="12.83" width="4.98" height="20.21"/>
        <rect class="cls-2" x="1329.7" y="12.83" width="4.98" height="20.21"/>
        <rect class="cls-2" x="1324.72" y="12.83" width="4.98" height="20.21"/>
        <rect class="cls-2" x="1319.74" y="12.83" width="4.98" height="20.21"/>
        <rect class="cls-2" x="1314.77" y="12.83" width="4.98" height="20.21"/>
      </g>
      <g>
        <rect class="cls-2" x="1369.53" y="72.55" width="4.98" height="20.21"/>
        <rect class="cls-2" x="1364.55" y="72.55" width="4.98" height="20.21"/>
        <rect class="cls-2" x="1359.57" y="72.55" width="4.98" height="20.21"/>
        <rect class="cls-2" x="1354.6" y="72.55" width="4.98" height="20.21"/>
        <rect class="cls-2" x="1349.62" y="72.55" width="4.98" height="20.21"/>
        <rect class="cls-2" x="1344.64" y="72.55" width="4.98" height="20.21"/>
      </g>
      <g>
        <rect class="cls-2" x="1339.66" y="72.55" width="4.98" height="20.21"/>
        <rect class="cls-2" x="1334.68" y="72.55" width="4.98" height="20.21"/>
        <rect class="cls-2" x="1329.7" y="72.55" width="4.98" height="20.21"/>
        <rect class="cls-2" x="1324.72" y="72.55" width="4.98" height="20.21"/>
        <rect class="cls-2" x="1319.74" y="72.55" width="4.98" height="20.21"/>
        <rect class="cls-2" x="1314.77" y="72.55" width="4.98" height="20.21"/>
      </g>
      <g>
        <rect class="cls-2" x="1369.53" y="37.22" width="4.98" height="31.15"/>
        <rect class="cls-2" x="1364.55" y="37.22" width="4.98" height="31.15"/>
        <rect class="cls-2" x="1359.57" y="37.22" width="4.98" height="31.15"/>
        <rect class="cls-2" x="1354.6" y="37.22" width="4.98" height="31.15"/>
        <rect class="cls-2" x="1349.62" y="37.22" width="4.98" height="31.15"/>
        <rect class="cls-2" x="1344.64" y="37.22" width="4.98" height="31.15"/>
      </g>
      <g>
        <rect class="cls-2" x="1339.66" y="37.22" width="4.98" height="31.15"/>
        <rect class="cls-2" x="1334.68" y="37.22" width="4.98" height="31.15"/>
        <rect class="cls-2" x="1329.7" y="37.22" width="4.98" height="31.15"/>
        <rect class="cls-2" x="1324.72" y="37.22" width="4.98" height="31.15"/>
        <rect class="cls-2" x="1319.74" y="37.22" width="4.98" height="31.15"/>
        <rect class="cls-2" x="1314.77" y="37.22" width="4.98" height="31.15"/>
      </g>
      <rect class="cls-2" x="1" y="1" width="458.96" height="102.26"/>
      <rect class="cls-2" x="318.4" y="1" width="91.77" height="102.26"/>
      <rect class="cls-2" x="410.17" y="57.04" width="49.79" height="46.21"/>
      <rect class="cls-2" x="438.6" y="57.04" width="21.36" height="46.21"/>
      <rect class="cls-2" x="1" y="141.55" width="178.02" height="99.96"/>
      <rect class="cls-2" x="179.02" y="141.55" width="366.83" height="99.96"/>
      <rect class="cls-2" x="179.02" y="141.55" width="97.53" height="99.96"/>
      <rect class="cls-2" x="458" y="141.55" width="87.85" height="99.96"/>
      <rect class="cls-2" x="594.11" y="141.55" width="156.32" height="99.96"/>
      <rect class="cls-2" x="1110.51" y="141.55" width="537.7" height="99.96"/>
      <rect class="cls-2" x="1436.55" y="141.55" width="211.66" height="99.96"/>
      <rect class="cls-2" x="1310.43" y="141.55" width="49.15" height="99.96"/>
      <rect class="cls-2" x="1152.64" y="141.55" width="65.87" height="99.96"/>
      <polyline class="cls-2" points="1374.51 1 1555.02 1 1555.02 103.26 1374.51 103.26"/>
      <polyline class="cls-2" points="1374.51 1 1110.51 1 1110.51 103.26 1374.51 103.26"/>
      <rect class="cls-2" x="1198.34" y="1" width="116.43" height="102.26"/>
      <rect class="cls-2" x="1508.89" y="1" width="46.13" height="102.26"/>
      <rect class="cls-2" x="1428.89" y="1" width="40.85" height="102.26"/>
      <rect class="cls-2" x="1396.55" y="1" width="32.34" height="102.26"/>
      <rect class="cls-2" x="750.43" y="1" width="360.09" height="102.26"/>
      <rect class="cls-2" x="1022.98" y="1" width="47.49" height="102.26"/>
      <rect class="cls-2" x="1070.47" y="70.96" width="40.04" height="32.3"/>
      <rect class="cls-2" x="655.74" y="141.55" width="46.3" height="99.96"/>
      <rect class="cls-2" x="545.85" y="141.55" width="48.26" height="99.96"/>
      <rect class="cls-2" x="459.96" y="1" width="87.7" height="102.26"/>
      <rect class="cls-2" x="547.66" y="1" width="202.77" height="102.26"/>
      <line class="cls-2" x1="1555.02" y1="141.55" x2="1555.02" y2="103.26"/>
      <line class="cls-2" x1="134.14" y1="103.26" x2="134.14" y2="141.55"/>
      <line class="cls-2" x1="83.92" y1="103.26" x2="83.92" y2="141.55"/>
      <g>
        <path class="cls-1" d="M1443.1,56.18l-2.05-8.08h1.1l.96,4.09c.24,1.01.46,2.02.6,2.79h.02c.13-.8.38-1.76.66-2.81l1.08-4.08h1.09l.98,4.1c.23.96.44,1.92.56,2.77h.02c.17-.89.4-1.79.65-2.79l1.07-4.08h1.07l-2.29,8.08h-1.09l-1.02-4.21c-.25-1.03-.42-1.82-.53-2.64h-.02c-.14.8-.32,1.6-.62,2.64l-1.15,4.21h-1.09Z"/>
        <path class="cls-1" d="M1457.58,55.91c-.38.19-1.15.38-2.13.38-2.28,0-3.99-1.44-3.99-4.09s1.71-4.25,4.22-4.25c1.01,0,1.64.22,1.92.36l-.25.85c-.4-.19-.96-.34-1.63-.34-1.89,0-3.15,1.21-3.15,3.33,0,1.98,1.14,3.25,3.11,3.25.64,0,1.28-.13,1.7-.34l.22.83Z"/>
      </g>
      <g>
        <path class="cls-1" d="M443.05,84.2l-2.05-8.08h1.1l.96,4.09c.24,1.01.46,2.02.6,2.79h.02c.13-.8.38-1.76.66-2.81l1.08-4.08h1.09l.98,4.1c.23.96.44,1.92.56,2.77h.02c.17-.89.4-1.79.65-2.79l1.07-4.08h1.07l-2.29,8.08h-1.09l-1.02-4.21c-.25-1.03-.42-1.82-.53-2.64h-.02c-.14.8-.32,1.6-.62,2.64l-1.15,4.21h-1.09Z"/>
        <path class="cls-1" d="M457.54,83.93c-.38.19-1.15.38-2.13.38-2.28,0-3.99-1.44-3.99-4.09s1.71-4.25,4.22-4.25c1.01,0,1.64.22,1.92.36l-.25.85c-.4-.19-.96-.34-1.63-.34-1.89,0-3.15,1.21-3.15,3.33,0,1.98,1.14,3.25,3.11,3.25.64,0,1.28-.13,1.7-.34l.22.83Z"/>
      </g>
      <g>
        <path class="cls-1" d="M1483.1,56.18l-2.05-8.08h1.1l.96,4.09c.24,1.01.46,2.02.6,2.79h.02c.13-.8.38-1.76.66-2.81l1.08-4.08h1.09l.98,4.1c.23.96.44,1.92.56,2.77h.02c.17-.89.4-1.79.65-2.79l1.07-4.08h1.07l-2.29,8.08h-1.09l-1.02-4.21c-.25-1.03-.42-1.82-.53-2.64h-.02c-.14.8-.32,1.6-.62,2.64l-1.15,4.21h-1.09Z"/>
        <path class="cls-1" d="M1497.58,55.91c-.38.19-1.15.38-2.13.38-2.28,0-3.99-1.44-3.99-4.09s1.71-4.25,4.22-4.25c1.01,0,1.64.22,1.92.36l-.25.85c-.4-.19-.96-.34-1.63-.34-1.89,0-3.15,1.21-3.15,3.33,0,1.98,1.14,3.25,3.11,3.25.64,0,1.28-.13,1.7-.34l.22.83Z"/>
      </g>
      <g>
        <path class="cls-1" d="M1525.74,56.18l-2.05-8.08h1.1l.96,4.09c.24,1.01.46,2.02.6,2.79h.02c.13-.8.38-1.76.66-2.81l1.08-4.08h1.09l.98,4.1c.23.96.44,1.92.56,2.77h.02c.17-.89.4-1.79.65-2.79l1.07-4.08h1.07l-2.29,8.08h-1.09l-1.02-4.21c-.25-1.03-.42-1.82-.53-2.64h-.02c-.14.8-.32,1.6-.62,2.64l-1.15,4.21h-1.09Z"/>
        <path class="cls-1" d="M1540.22,55.91c-.38.19-1.15.38-2.13.38-2.28,0-3.99-1.44-3.99-4.09s1.71-4.25,4.22-4.25c1.01,0,1.64.22,1.92.36l-.25.85c-.4-.19-.96-.34-1.63-.34-1.89,0-3.15,1.21-3.15,3.33,0,1.98,1.14,3.25,3.11,3.25.64,0,1.28-.13,1.7-.34l.22.83Z"/>
      </g>
      <rect class="cls-2" x="1469.74" y="1" width="39.15" height="102.26"/>
    </g>
  </g>
</svg>
