<?xml version="1.0" encoding="UTF-8"?>
<svg id="_Слой_2" data-name=" Слой 2" xmlns="http://www.w3.org/2000/svg" viewBox="0 0 1328 1328">
  <defs>
    <style>
      .cls-1 {
        stroke-miterlimit: 10;
        stroke-width: 2px;
      }

      .cls-1, .cls-2, .cls-3, .cls-4 {
        fill: none;
      }

      .cls-1, .cls-3, .cls-4 {
        stroke: #1d1d1b;
      }

      .cls-3, .cls-4 {
        stroke-miterlimit: 10;
      }

      .cls-4 {
        stroke-width: 2px;
      }

      .cls-5 {
        fill: #1d1d1b;
      }
    </style>
  </defs>
  <rect class="cls-4" x="733.72" y="897.21" width="272.71" height="258.13"/>
  <rect class="cls-4" x="1006.43" y="525.98" width="264" height="411.57"/>
  <polyline class="cls-4" points="1006.43 538.06 1006.43 897.21 137.91 897.21 137.91 711.43"/>
  <line class="cls-4" x1="629.49" y1="573.81" x2="1006.43" y2="573.81"/>
  <line class="cls-4" x1="137.91" y1="538.06" x2="629.49" y2="538.06"/>
  <polyline class="cls-4" points="137.91 711.43 57.57 711.43 57.57 538.06 137.91 538.06"/>
  <line class="cls-4" x1="629.49" y1="573.81" x2="629.49" y2="538.06"/>
  <line class="cls-4" x1="733.72" y1="897.21" x2="733.72" y2="731"/>
  <line class="cls-4" x1="137.91" y1="731.77" x2="733.72" y2="731.77"/>
  <line class="cls-4" x1="701.36" y1="731" x2="701.36" y2="573.81"/>
  <line class="cls-4" x1="933.96" y1="897.21" x2="933.96" y2="573.81"/>
  <line class="cls-4" x1="533.62" y1="931.81" x2="733.72" y2="931.81"/>
  <line class="cls-4" x1="496.34" y1="969.08" x2="533.62" y2="931.81"/>
  <line class="cls-4" x1="901.45" y1="1030.62" x2="901.45" y2="897.21"/>
  <polyline class="cls-4" points="729.36 573.81 729.36 172.66 906.3 172.66 906.3 573.81"/>
  <line class="cls-4" x1="817.83" y1="573.81" x2="817.83" y2="172.66"/>
  <line class="cls-4" x1="462.55" y1="897.21" x2="462.55" y2="731.77"/>
  <line class="cls-4" x1="383.7" y1="897.21" x2="383.7" y2="731.77"/>
  <line class="cls-4" x1="264.94" y1="897.21" x2="264.94" y2="731"/>
  <line class="cls-4" x1="701.36" y1="697.64" x2="262.89" y2="697.64"/>
  <line class="cls-4" x1="423.49" y1="650.15" x2="57.55" y2="650.15"/>
  <line class="cls-4" x1="423.49" y1="697.64" x2="423.49" y2="650.15"/>
  <line class="cls-4" x1="262.89" y1="697.64" x2="262.89" y2="650.15"/>
  <line class="cls-4" x1="347.4" y1="617.98" x2="57.57" y2="617.98"/>
  <line class="cls-4" x1="347.4" y1="538.06" x2="347.4" y2="617.98"/>
  <rect class="cls-4" x="884.23" y="532.13" width="22.07" height="5.61"/>
  <rect class="cls-4" x="884.23" y="526.26" width="22.07" height="5.87"/>
  <rect class="cls-4" x="884.23" y="543.61" width="22.07" height="5.61"/>
  <rect class="cls-4" x="884.22" y="549.22" width="22.07" height="5.87"/>
  <rect class="cls-4" x="884.23" y="537.74" width="22.07" height="5.87"/>
  <rect class="cls-4" x="884.23" y="521.19" width="22.07" height="5.07"/>
  <rect class="cls-4" x="884.23" y="515.33" width="22.07" height="5.87"/>
  <rect class="cls-4" x="884.22" y="509.96" width="22.07" height="5.37"/>
  <rect class="cls-4" x="856.82" y="532.13" width="22.07" height="5.61"/>
  <rect class="cls-4" x="856.82" y="526.27" width="22.07" height="5.87"/>
  <rect class="cls-4" x="856.82" y="543.6" width="22.07" height="5.61"/>
  <rect class="cls-4" x="856.82" y="549.21" width="22.07" height="5.87"/>
  <rect class="cls-4" x="856.82" y="537.74" width="22.07" height="5.87"/>
  <rect class="cls-4" x="856.83" y="521.19" width="22.07" height="5.07"/>
  <rect class="cls-4" x="856.83" y="515.33" width="22.07" height="5.87"/>
  <rect class="cls-4" x="856.82" y="509.95" width="22.07" height="5.37"/>
  <g>
    <rect class="cls-4" x="1118.78" y="500.04" width="6.89" height="25.91"/>
    <rect class="cls-4" x="1111.89" y="500.04" width="6.89" height="25.91"/>
    <rect class="cls-4" x="1132.26" y="500.04" width="6.89" height="25.91"/>
    <rect class="cls-4" x="1138.84" y="500.04" width="6.89" height="25.91"/>
    <rect class="cls-4" x="1125.37" y="500.04" width="6.89" height="25.91"/>
    <rect class="cls-4" x="1105.94" y="500.04" width="5.95" height="25.91"/>
    <rect class="cls-4" x="1099.05" y="500.04" width="6.89" height="25.91"/>
    <rect class="cls-4" x="1092.75" y="500.04" width="6.3" height="25.91"/>
  </g>
  <g>
    <rect class="cls-4" x="118.43" y="512.15" width="6.59" height="25.91"/>
    <rect class="cls-4" x="111.55" y="512.15" width="6.89" height="25.91"/>
    <rect class="cls-4" x="131.91" y="512.15" width="6.89" height="25.91"/>
    <rect class="cls-4" x="138.79" y="512.15" width="6.59" height="25.91"/>
    <rect class="cls-4" x="125.02" y="512.15" width="6.89" height="25.91"/>
    <rect class="cls-4" x="105.59" y="512.15" width="5.95" height="25.91"/>
    <rect class="cls-4" x="98.71" y="512.15" width="6.89" height="25.91"/>
    <rect class="cls-4" x="92.4" y="512.15" width="6.3" height="25.91"/>
  </g>
  <g>
    <rect class="cls-4" x="246.18" y="512.15" width="6.59" height="25.91"/>
    <rect class="cls-4" x="239.29" y="512.15" width="6.89" height="25.91"/>
    <rect class="cls-4" x="259.65" y="512.15" width="6.89" height="25.91"/>
    <rect class="cls-4" x="266.54" y="512.15" width="6.59" height="25.91"/>
    <rect class="cls-4" x="252.77" y="512.15" width="6.89" height="25.91"/>
    <rect class="cls-4" x="233.34" y="512.15" width="5.95" height="25.91"/>
    <rect class="cls-4" x="226.45" y="512.15" width="6.89" height="25.91"/>
    <rect class="cls-4" x="220.15" y="512.15" width="6.3" height="25.91"/>
  </g>
  <g>
    <rect class="cls-4" x="822.11" y="735.05" width="25.91" height="6.89"/>
    <rect class="cls-4" x="822.11" y="728.16" width="25.91" height="6.89"/>
    <rect class="cls-4" x="822.11" y="748.52" width="25.91" height="6.89"/>
    <rect class="cls-4" x="822.11" y="755.41" width="25.91" height="6.59"/>
    <rect class="cls-4" x="822.1" y="741.94" width="25.91" height="6.59"/>
    <rect class="cls-4" x="822.11" y="722.21" width="25.91" height="5.95"/>
    <rect class="cls-4" x="822.11" y="715.32" width="25.91" height="6.89"/>
    <rect class="cls-4" x="822.11" y="709.02" width="25.91" height="6.3"/>
  </g>
  <g>
    <rect class="cls-4" x="822.11" y="670.69" width="25.91" height="6.59"/>
    <rect class="cls-4" x="822.11" y="663.8" width="25.91" height="6.89"/>
    <rect class="cls-4" x="822.11" y="684.16" width="25.91" height="6.89"/>
    <rect class="cls-4" x="822.11" y="691.05" width="25.91" height="6.59"/>
    <rect class="cls-4" x="822.1" y="677.28" width="25.91" height="6.89"/>
    <rect class="cls-4" x="822.11" y="657.85" width="25.91" height="5.95"/>
    <rect class="cls-4" x="822.11" y="650.96" width="25.91" height="6.89"/>
    <rect class="cls-4" x="822.1" y="644.66" width="25.91" height="6.3"/>
  </g>
  <g>
    <rect class="cls-4" x="978.73" y="732.25" width="4.99" height="18.78"/>
    <rect class="cls-4" x="973.74" y="732.25" width="4.99" height="18.78"/>
    <rect class="cls-4" x="988.5" y="732.25" width="4.99" height="18.78"/>
    <rect class="cls-4" x="993.49" y="732.25" width="4.78" height="18.78"/>
    <rect class="cls-4" x="983.72" y="732.25" width="4.78" height="18.78"/>
    <rect class="cls-4" x="969.42" y="732.25" width="4.32" height="18.78"/>
    <rect class="cls-4" x="964.43" y="732.25" width="4.99" height="18.78"/>
    <rect class="cls-4" x="959.86" y="732.25" width="4.57" height="18.78"/>
  </g>
  <g>
    <rect class="cls-4" x="978.73" y="755.41" width="4.99" height="18.78"/>
    <rect class="cls-4" x="973.74" y="755.41" width="4.99" height="18.78"/>
    <rect class="cls-4" x="988.5" y="755.41" width="4.99" height="18.78"/>
    <rect class="cls-4" x="993.49" y="755.41" width="4.78" height="18.78"/>
    <rect class="cls-4" x="983.72" y="755.41" width="4.78" height="18.78"/>
    <rect class="cls-4" x="969.42" y="755.41" width="4.32" height="18.78"/>
    <rect class="cls-4" x="964.43" y="755.41" width="4.99" height="18.78"/>
    <rect class="cls-4" x="959.86" y="755.41" width="4.57" height="18.78"/>
  </g>
  <g>
    <rect class="cls-4" x="818.48" y="1009" width="82.96" height="5.2"/>
    <rect class="cls-4" x="818.49" y="1003.56" width="82.96" height="5.43"/>
    <rect class="cls-4" x="818.49" y="1019.63" width="82.96" height="5.2"/>
    <rect class="cls-4" x="818.48" y="1024.82" width="82.96" height="5.43"/>
    <rect class="cls-4" x="818.48" y="1014.19" width="82.96" height="5.43"/>
    <rect class="cls-4" x="818.48" y="998.87" width="82.96" height="4.7"/>
    <rect class="cls-4" x="818.49" y="993.44" width="82.96" height="5.43"/>
    <rect class="cls-4" x="818.49" y="988.47" width="82.96" height="4.97"/>
  </g>
  <g>
    <rect class="cls-4" x="733.72" y="1008.99" width="84.77" height="5.2"/>
    <rect class="cls-4" x="733.71" y="1003.57" width="84.77" height="5.43"/>
    <rect class="cls-4" x="733.71" y="1019.62" width="84.77" height="5.2"/>
    <rect class="cls-4" x="733.71" y="1024.82" width="84.77" height="5.43"/>
    <rect class="cls-4" x="733.71" y="1014.2" width="84.77" height="5.43"/>
    <rect class="cls-4" x="733.71" y="998.87" width="84.77" height="4.7"/>
    <rect class="cls-4" x="733.71" y="993.44" width="84.77" height="5.43"/>
    <rect class="cls-4" x="733.71" y="988.47" width="84.77" height="4.97"/>
  </g>
  <g>
    <rect class="cls-4" x="187.19" y="712.6" width="4.87" height="19.17"/>
    <rect class="cls-4" x="182.1" y="712.6" width="5.09" height="19.17"/>
    <rect class="cls-4" x="197.16" y="712.6" width="5.09" height="19.17"/>
    <rect class="cls-4" x="202.25" y="712.6" width="4.87" height="19.17"/>
    <rect class="cls-4" x="192.06" y="712.6" width="5.09" height="19.17"/>
    <rect class="cls-4" x="177.69" y="712.6" width="4.4" height="19.17"/>
    <rect class="cls-4" x="172.6" y="712.6" width="5.09" height="19.17"/>
    <rect class="cls-4" x="167.93" y="712.6" width="4.66" height="19.17"/>
  </g>
  <g>
    <rect class="cls-4" x="187.19" y="693.45" width="4.87" height="19.17"/>
    <rect class="cls-4" x="182.1" y="693.45" width="5.09" height="19.17"/>
    <rect class="cls-4" x="197.16" y="693.45" width="5.09" height="19.17"/>
    <rect class="cls-4" x="202.25" y="693.45" width="4.87" height="19.17"/>
    <rect class="cls-4" x="192.06" y="693.45" width="5.09" height="19.17"/>
    <rect class="cls-4" x="177.69" y="693.45" width="4.4" height="19.17"/>
    <rect class="cls-4" x="172.6" y="693.45" width="5.09" height="19.17"/>
    <rect class="cls-4" x="167.93" y="693.45" width="4.66" height="19.17"/>
  </g>
  <g>
    <rect class="cls-1" x="496.47" y="907" width="6.89" height="48.31" transform="translate(-512.01 626.22) rotate(-45)"/>
    <rect class="cls-1" x="491.6" y="911.88" width="6.89" height="48.31" transform="translate(-516.88 624.21) rotate(-45)"/>
    <rect class="cls-1" x="506" y="897.48" width="6.89" height="48.31" transform="translate(-502.48 630.17) rotate(-45)"/>
    <rect class="cls-1" x="510.9" y="892.71" width="6.59" height="48.31" transform="translate(-497.72 632.14) rotate(-45)"/>
    <rect class="cls-1" x="501.37" y="902.25" width="6.59" height="48.31" transform="translate(-507.25 628.19) rotate(-45)"/>
    <rect class="cls-1" x="487.52" y="916.42" width="5.95" height="48.31" transform="translate(-521.42 622.32) rotate(-45)"/>
    <rect class="cls-1" x="482.51" y="920.96" width="6.89" height="48.31" transform="translate(-525.96 620.44) rotate(-45)"/>
    <rect class="cls-1" x="478.15" y="925.63" width="6.3" height="48.31" transform="translate(-530.63 618.52) rotate(-45)"/>
  </g>
  <g>
    <rect class="cls-4" x="1032.46" y="1052.58" width="6.89" height="45.31"/>
    <rect class="cls-4" x="1025.57" y="1052.58" width="6.89" height="45.31"/>
    <rect class="cls-4" x="1045.93" y="1052.58" width="6.59" height="45.31"/>
    <rect class="cls-4" x="1052.52" y="1052.58" width="6.89" height="45.31"/>
    <rect class="cls-4" x="1039.34" y="1052.58" width="6.59" height="45.31"/>
    <rect class="cls-4" x="1019.62" y="1052.58" width="5.95" height="45.31"/>
    <rect class="cls-4" x="1012.73" y="1052.58" width="6.89" height="45.31"/>
    <rect class="cls-4" x="1006.43" y="1052.58" width="6.3" height="45.31"/>
  </g>
  <g>
    <rect class="cls-4" x="770.01" y="1128.39" width="96.44" height="6.59"/>
    <rect class="cls-4" x="770" y="1121.5" width="96.44" height="6.89"/>
    <rect class="cls-4" x="770" y="1141.86" width="96.44" height="6.59"/>
    <rect class="cls-4" x="770" y="1148.45" width="96.44" height="6.89"/>
    <rect class="cls-4" x="770" y="1134.98" width="96.44" height="6.89"/>
    <rect class="cls-4" x="770" y="1115.55" width="96.44" height="5.95"/>
    <rect class="cls-4" x="770" y="1108.66" width="96.44" height="6.89"/>
    <rect class="cls-4" x="770" y="1102.36" width="96.44" height="6.3"/>
  </g>
  <line class="cls-4" x1="462.55" y1="771.08" x2="383.7" y2="771.08"/>
  <line class="cls-4" x1="1006.43" y1="694.19" x2="933.96" y2="694.19"/>
  <line class="cls-4" x1="93.36" y1="602.02" x2="117.7" y2="602.02"/>
  <line class="cls-4" x1="93.36" y1="578.87" x2="93.36" y2="602.02"/>
  <rect class="cls-2" width="1328" height="1328"/>
  <rect class="cls-3" x="383.7" y="731.77" width="78.85" height="39.32"/>
  <g>
    <path class="cls-5" d="M416.91,755.6l-2.05-8.08h1.1l.96,4.09c.24,1.01.46,2.02.6,2.79h.02c.13-.8.38-1.76.66-2.81l1.08-4.08h1.09l.98,4.1c.23.96.44,1.92.56,2.77h.02c.17-.89.4-1.79.65-2.79l1.07-4.08h1.07l-2.29,8.08h-1.09l-1.02-4.21c-.25-1.03-.42-1.82-.53-2.64h-.02c-.14.8-.32,1.6-.62,2.64l-1.15,4.21h-1.09Z"/>
    <path class="cls-5" d="M431.39,755.34c-.38.19-1.15.38-2.13.38-2.28,0-3.99-1.44-3.99-4.09s1.71-4.25,4.22-4.25c1.01,0,1.64.22,1.92.36l-.25.85c-.4-.19-.96-.34-1.63-.34-1.89,0-3.15,1.21-3.15,3.33,0,1.98,1.14,3.25,3.11,3.25.64,0,1.28-.13,1.7-.34l.22.83-.02.02Z"/>
  </g>
  <rect class="cls-4" x="933.96" y="573.81" width="72.47" height="120.39"/>
  <g>
    <path class="cls-5" d="M963.97,638.05l-2.05-8.08h1.1l.96,4.09c.24,1.01.46,2.02.6,2.79h.02c.13-.8.38-1.76.66-2.81l1.08-4.08h1.09l.98,4.1c.23.96.44,1.92.56,2.77h.02c.17-.89.4-1.79.65-2.79l1.07-4.08h1.07l-2.29,8.08h-1.09l-1.02-4.21c-.25-1.03-.42-1.82-.53-2.64h-.02c-.14.8-.32,1.6-.62,2.64l-1.15,4.21h-1.09,0Z"/>
    <path class="cls-5" d="M978.45,637.79c-.38.19-1.15.38-2.13.38-2.28,0-3.99-1.44-3.99-4.09s1.71-4.25,4.22-4.25c1.01,0,1.64.22,1.92.36l-.25.85c-.4-.19-.96-.34-1.63-.34-1.89,0-3.15,1.21-3.15,3.33,0,1.98,1.14,3.25,3.11,3.25.64,0,1.28-.13,1.7-.34l.22.83-.02.02Z"/>
  </g>
  <rect class="cls-3" x="93.36" y="578.87" width="24.34" height="23.15"/>
  <rect class="cls-4" x="57.57" y="538.06" width="60.13" height="40.81"/>
  <g>
    <path class="cls-5" d="M99.31,594.49l-2.05-8.08h1.1l.96,4.09c.24,1.01.46,2.02.6,2.79h.02c.13-.8.38-1.76.66-2.81l1.08-4.08h1.09l.98,4.1c.23.96.44,1.92.56,2.77h.02c.17-.89.4-1.79.65-2.79l1.07-4.08h1.07l-2.29,8.08h-1.09l-1.02-4.21c-.25-1.03-.42-1.82-.53-2.64h-.02c-.14.8-.32,1.6-.62,2.64l-1.15,4.21h-1.09Z"/>
    <path class="cls-5" d="M113.79,594.23c-.38.19-1.15.38-2.13.38-2.28,0-3.99-1.44-3.99-4.09s1.71-4.25,4.22-4.25c1.01,0,1.64.22,1.92.36l-.25.85c-.4-.19-.96-.34-1.63-.34-1.89,0-3.15,1.21-3.15,3.33,0,1.98,1.14,3.25,3.11,3.25.64,0,1.28-.13,1.7-.34l.22.83-.02.02Z"/>
  </g>
  <line class="cls-4" x1="729.36" y1="232.17" x2="817.83" y2="232.17"/>
  <line class="cls-4" x1="817.83" y1="385.86" x2="729.37" y2="385.86"/>
  <line class="cls-4" x1="729.36" y1="509.95" x2="817.83" y2="509.95"/>
  <line class="cls-4" x1="856.82" y1="321.22" x2="856.82" y2="454.87"/>
  <line class="cls-4" x1="906.3" y1="321.22" x2="817.83" y2="321.22"/>
  <line class="cls-4" x1="906.3" y1="172.66" x2="729.36" y2="172.66"/>
  <polyline class="cls-4" points="856.82 495.56 856.82 321.22 906.29 321.22"/>
  <line class="cls-4" x1="856.82" y1="495.56" x2="906.3" y2="495.56"/>
</svg>