<?xml version="1.0" encoding="UTF-8" standalone="no"?>
<svg
   id="_Слой_2"
   version="1.1"
   viewBox="0 0 1328 1328"
   sodipodi:docname="харьк 2 эт (1).svg"
   inkscape:version="1.4.3 (0d15f75, 2025-12-25)"
   xmlns:inkscape="http://www.inkscape.org/namespaces/inkscape"
   xmlns:sodipodi="http://sodipodi.sourceforge.net/DTD/sodipodi-0.dtd"
   xmlns="http://www.w3.org/2000/svg"
   xmlns:svg="http://www.w3.org/2000/svg">
  <sodipodi:namedview
     id="namedview114"
     pagecolor="#ffffff"
     bordercolor="#000000"
     borderopacity="0.25"
     inkscape:showpageshadow="2"
     inkscape:pageopacity="0.0"
     inkscape:pagecheckerboard="0"
     inkscape:deskcolor="#d1d1d1"
     inkscape:zoom="0.90509668"
     inkscape:cx="616.50873"
     inkscape:cy="745.22426"
     inkscape:window-width="2560"
     inkscape:window-height="1369"
     inkscape:window-x="-8"
     inkscape:window-y="-8"
     inkscape:window-maximized="1"
     inkscape:current-layer="_Слой_2" />
  <!-- Generator: Adobe Illustrator 29.2.1, SVG Export Plug-In . SVG Version: 2.1.0 Build 116)  -->
  <defs
     id="defs1">
    <style
       id="style1">
      .st0, .st1, .st2 {
        fill: none;
      }

      .st1, .st2 {
        stroke: #ffffff;
        stroke-miterlimit: 10;
      }

      .st2 {
        stroke-width: 2px;
      }

      .st3 {
        fill: none;
      }
    </style>
  </defs>
  <g
     id="_Слой_2-2"
     style="stroke-width:2.66666667;stroke-dasharray:none">
    <rect
       class="st2"
       x="733.7"
       y="897.2"
       width="177.2"
       height="155.4"
       id="rect1"
       style="stroke-width:2.66666667;stroke-dasharray:none" />
    <rect
       class="st2"
       x="1006.4"
       y="526"
       width="264"
       height="411.6"
       id="rect2"
       style="stroke-width:2.66666667;stroke-dasharray:none" />
    <polyline
       class="st2"
       points="1006.4 538.1 1006.4 897.2 137.9 897.2 137.9 711.4"
       id="polyline2"
       style="stroke-width:2.66666667;stroke-dasharray:none" />
    <line
       class="st2"
       x1="629.5"
       y1="573.8"
       x2="1006.4"
       y2="573.8"
       id="line2"
       style="stroke-width:2.66666667;stroke-dasharray:none" />
    <line
       class="st2"
       x1="58.1"
       y1="538.1"
       x2="629.5"
       y2="538.1"
       id="line3"
       style="stroke-width:2.66666667;stroke-dasharray:none" />
    <line
       class="st2"
       x1="629.5"
       y1="573.8"
       x2="629.5"
       y2="538.1"
       id="line4"
       style="stroke-width:2.66666667;stroke-dasharray:none" />
    <line
       class="st2"
       x1="733.7"
       y1="897.2"
       x2="733.7"
       y2="731"
       id="line5"
       style="stroke-width:2.66666667;stroke-dasharray:none" />
    <line
       class="st2"
       x1="137.89999"
       y1="731.79999"
       x2="784.7984"
       y2="731.79999"
       id="line6"
       style="stroke-width:2.66666667;stroke-dasharray:none" />
    <line
       class="st2"
       x1="784.1"
       y1="897.2"
       x2="784.1"
       y2="573.8"
       id="line7"
       style="stroke-width:2.66666667;stroke-dasharray:none" />
    <line
       class="st2"
       x1="934"
       y1="897.2"
       x2="934"
       y2="573.8"
       id="line8"
       style="stroke-width:2.66666667;stroke-dasharray:none" />
    <polyline
       class="st2"
       points="906.3 417 906.3 573.8 729.4 573.8 729.4 417"
       id="polyline8"
       style="stroke-width:2.66666667;stroke-dasharray:none" />
    <polyline
       class="st2"
       points="729.4 194.1 729.4 172.7 906.3 172.7 906.3 194.1"
       id="polyline9"
       style="stroke-width:2.66666667;stroke-dasharray:none" />
    <line
       class="st2"
       x1="817.8"
       y1="573.8"
       x2="817.8"
       y2="172.7"
       id="line9"
       style="stroke-width:2.66666667;stroke-dasharray:none" />
    <line
       class="st2"
       x1="462.5"
       y1="897.2"
       x2="462.5"
       y2="731.8"
       id="line10"
       style="stroke-width:2.66666667;stroke-dasharray:none" />
    <line
       class="st2"
       x1="383.7"
       y1="897.2"
       x2="383.7"
       y2="731.8"
       id="line11"
       style="stroke-width:2.66666667;stroke-dasharray:none" />
    <line
       class="st2"
       x1="264.9"
       y1="897.2"
       x2="264.9"
       y2="731"
       id="line12"
       style="stroke-width:2.66666667;stroke-dasharray:none" />
    <g
       id="g19"
       style="stroke-width:2.66666667;stroke-dasharray:none">
      <rect
         class="st2"
         x="884.2"
         y="532.1"
         width="22.1"
         height="5.6"
         id="rect12"
         style="stroke-width:2.66666667;stroke-dasharray:none" />
      <rect
         class="st2"
         x="884.2"
         y="526.3"
         width="22.1"
         height="5.9"
         id="rect13"
         style="stroke-width:2.66666667;stroke-dasharray:none" />
      <rect
         class="st2"
         x="884.2"
         y="543.6"
         width="22.1"
         height="5.6"
         id="rect14"
         style="stroke-width:2.66666667;stroke-dasharray:none" />
      <rect
         class="st2"
         x="884.2"
         y="549.2"
         width="22.1"
         height="5.9"
         id="rect15"
         style="stroke-width:2.66666667;stroke-dasharray:none" />
      <rect
         class="st2"
         x="884.2"
         y="537.7"
         width="22.1"
         height="5.9"
         id="rect16"
         style="stroke-width:2.66666667;stroke-dasharray:none" />
      <rect
         class="st2"
         x="884.2"
         y="521.2"
         width="22.1"
         height="5.1"
         id="rect17"
         style="stroke-width:2.66666667;stroke-dasharray:none" />
      <rect
         class="st2"
         x="884.2"
         y="515.3"
         width="22.1"
         height="5.9"
         id="rect18"
         style="stroke-width:2.66666667;stroke-dasharray:none" />
      <rect
         class="st2"
         x="884.2"
         y="510"
         width="22.1"
         height="5.4"
         id="rect19"
         style="stroke-width:2.66666667;stroke-dasharray:none" />
    </g>
    <g
       id="g27"
       style="stroke-width:2.66666667;stroke-dasharray:none">
      <rect
         class="st2"
         x="856.8"
         y="532.1"
         width="22.1"
         height="5.6"
         id="rect20"
         style="stroke-width:2.66666667;stroke-dasharray:none" />
      <rect
         class="st2"
         x="856.8"
         y="526.3"
         width="22.1"
         height="5.9"
         id="rect21"
         style="stroke-width:2.66666667;stroke-dasharray:none" />
      <rect
         class="st2"
         x="856.8"
         y="543.6"
         width="22.1"
         height="5.6"
         id="rect22"
         style="stroke-width:2.66666667;stroke-dasharray:none" />
      <rect
         class="st2"
         x="856.8"
         y="549.2"
         width="22.1"
         height="5.9"
         id="rect23"
         style="stroke-width:2.66666667;stroke-dasharray:none" />
      <rect
         class="st2"
         x="856.8"
         y="537.7"
         width="22.1"
         height="5.9"
         id="rect24"
         style="stroke-width:2.66666667;stroke-dasharray:none" />
      <rect
         class="st2"
         x="856.8"
         y="521.2"
         width="22.1"
         height="5.1"
         id="rect25"
         style="stroke-width:2.66666667;stroke-dasharray:none" />
      <rect
         class="st2"
         x="856.8"
         y="515.3"
         width="22.1"
         height="5.9"
         id="rect26"
         style="stroke-width:2.66666667;stroke-dasharray:none" />
      <rect
         class="st2"
         x="856.8"
         y="510"
         width="22.1"
         height="5.4"
         id="rect27"
         style="stroke-width:2.66666667;stroke-dasharray:none" />
    </g>
    <g
       id="g35"
       style="stroke-width:2.66666667;stroke-dasharray:none">
      <rect
         class="st2"
         x="1138"
         y="512.7"
         width="6.9"
         height="13"
         id="rect28"
         style="stroke-width:2.66666667;stroke-dasharray:none" />
      <rect
         class="st2"
         x="1131.1"
         y="512.7"
         width="6.9"
         height="13"
         id="rect29"
         style="stroke-width:2.66666667;stroke-dasharray:none" />
      <rect
         class="st2"
         x="1151.4"
         y="512.7"
         width="6.9"
         height="13"
         id="rect30"
         style="stroke-width:2.66666667;stroke-dasharray:none" />
      <rect
         class="st2"
         x="1158"
         y="512.7"
         width="6.9"
         height="13"
         id="rect31"
         style="stroke-width:2.66666667;stroke-dasharray:none" />
      <rect
         class="st2"
         x="1144.6"
         y="512.7"
         width="6.9"
         height="13"
         id="rect32"
         style="stroke-width:2.66666667;stroke-dasharray:none" />
      <rect
         class="st2"
         x="1125.1"
         y="512.7"
         width="5.9"
         height="13"
         id="rect33"
         style="stroke-width:2.66666667;stroke-dasharray:none" />
      <rect
         class="st2"
         x="1118.2"
         y="512.7"
         width="6.9"
         height="13"
         id="rect34"
         style="stroke-width:2.66666667;stroke-dasharray:none" />
      <rect
         class="st2"
         x="1111.9"
         y="512.7"
         width="6.3"
         height="13"
         id="rect35"
         style="stroke-width:2.66666667;stroke-dasharray:none" />
    </g>
    <g
       id="g43"
       style="stroke-width:2.66666667;stroke-dasharray:none">
      <rect
         class="st2"
         x="1085"
         y="512.7"
         width="6.9"
         height="13"
         id="rect36"
         style="stroke-width:2.66666667;stroke-dasharray:none" />
      <rect
         class="st2"
         x="1078.1"
         y="512.7"
         width="6.9"
         height="13"
         id="rect37"
         style="stroke-width:2.66666667;stroke-dasharray:none" />
      <rect
         class="st2"
         x="1098.5"
         y="512.7"
         width="6.9"
         height="13"
         id="rect38"
         style="stroke-width:2.66666667;stroke-dasharray:none" />
      <rect
         class="st2"
         x="1105.1"
         y="512.7"
         width="6.9"
         height="13"
         id="rect39"
         style="stroke-width:2.66666667;stroke-dasharray:none" />
      <rect
         class="st2"
         x="1091.6"
         y="512.7"
         width="6.9"
         height="13"
         id="rect40"
         style="stroke-width:2.66666667;stroke-dasharray:none" />
      <rect
         class="st2"
         x="1072.2"
         y="512.7"
         width="5.9"
         height="13"
         id="rect41"
         style="stroke-width:2.66666667;stroke-dasharray:none" />
      <rect
         class="st2"
         x="1065.3"
         y="512.7"
         width="6.9"
         height="13"
         id="rect42"
         style="stroke-width:2.66666667;stroke-dasharray:none" />
      <rect
         class="st2"
         x="1059"
         y="512.7"
         width="6.3"
         height="13"
         id="rect43"
         style="stroke-width:2.66666667;stroke-dasharray:none" />
    </g>
    <g
       id="g51"
       style="stroke-width:2.66666667;stroke-dasharray:none">
      <rect
         class="st2"
         x="822.1"
         y="735.1"
         width="25.9"
         height="6.9"
         id="rect44"
         style="stroke-width:2.66666667;stroke-dasharray:none" />
      <rect
         class="st2"
         x="822.1"
         y="728.2"
         width="25.9"
         height="6.9"
         id="rect45"
         style="stroke-width:2.66666667;stroke-dasharray:none" />
      <rect
         class="st2"
         x="822.1"
         y="748.5"
         width="25.9"
         height="6.9"
         id="rect46"
         style="stroke-width:2.66666667;stroke-dasharray:none" />
      <rect
         class="st2"
         x="822.1"
         y="755.1"
         width="25.9"
         height="6.9"
         id="rect47"
         style="stroke-width:2.66666667;stroke-dasharray:none" />
      <rect
         class="st2"
         x="822.1"
         y="741.6"
         width="25.9"
         height="6.9"
         id="rect48"
         style="stroke-width:2.66666667;stroke-dasharray:none" />
      <rect
         class="st2"
         x="822.1"
         y="722.2"
         width="25.9"
         height="6"
         id="rect49"
         style="stroke-width:2.66666667;stroke-dasharray:none" />
      <rect
         class="st2"
         x="822.1"
         y="715.3"
         width="25.9"
         height="6.9"
         id="rect50"
         style="stroke-width:2.66666667;stroke-dasharray:none" />
      <rect
         class="st2"
         x="822.1"
         y="709"
         width="25.9"
         height="6.3"
         id="rect51"
         style="stroke-width:2.66666667;stroke-dasharray:none" />
    </g>
    <g
       id="g59"
       style="stroke-width:2.66667;stroke-dasharray:none"
       transform="translate(0,10.610597)">
      <rect
         class="st2"
         x="822.09998"
         y="670.70001"
         width="25.9"
         height="6.9000001"
         id="rect52"
         style="stroke-width:2.66667;stroke-dasharray:none" />
      <rect
         class="st2"
         x="822.09998"
         y="663.79999"
         width="25.9"
         height="6.9000001"
         id="rect53"
         style="stroke-width:2.66667;stroke-dasharray:none" />
      <rect
         class="st2"
         x="822.09998"
         y="684.20001"
         width="25.9"
         height="6.9000001"
         id="rect54"
         style="stroke-width:2.66667;stroke-dasharray:none" />
      <rect
         class="st2"
         x="822.09998"
         y="690.79999"
         width="25.9"
         height="6.9000001"
         id="rect55"
         style="stroke-width:2.66667;stroke-dasharray:none" />
      <rect
         class="st2"
         x="822.09998"
         y="677.29999"
         width="25.9"
         height="6.9000001"
         id="rect56"
         style="stroke-width:2.66667;stroke-dasharray:none" />
      <rect
         class="st2"
         x="822.09998"
         y="657.90002"
         width="25.9"
         height="6"
         id="rect57"
         style="stroke-width:2.66667;stroke-dasharray:none" />
      <rect
         class="st2"
         x="822.09998"
         y="651"
         width="25.9"
         height="6.9000001"
         id="rect58"
         style="stroke-width:2.66667;stroke-dasharray:none" />
      <rect
         class="st2"
         x="822.09998"
         y="644.70001"
         width="25.9"
         height="6.3000002"
         id="rect59"
         style="stroke-width:2.66667;stroke-dasharray:none" />
    </g>
    <g
       id="g67"
       style="stroke-width:2.66666667;stroke-dasharray:none">
      <rect
         class="st2"
         x="978.7"
         y="755.4"
         width="5"
         height="18.8"
         id="rect60"
         style="stroke-width:2.66666667;stroke-dasharray:none" />
      <rect
         class="st2"
         x="973.7"
         y="755.4"
         width="5"
         height="18.8"
         id="rect61"
         style="stroke-width:2.66666667;stroke-dasharray:none" />
      <rect
         class="st2"
         x="988.5"
         y="755.4"
         width="5"
         height="18.8"
         id="rect62"
         style="stroke-width:2.66666667;stroke-dasharray:none" />
      <rect
         class="st2"
         x="993.3"
         y="755.4"
         width="5"
         height="18.8"
         id="rect63"
         style="stroke-width:2.66666667;stroke-dasharray:none" />
      <rect
         class="st2"
         x="983.5"
         y="755.4"
         width="5"
         height="18.8"
         id="rect64"
         style="stroke-width:2.66666667;stroke-dasharray:none" />
      <rect
         class="st2"
         x="969.4"
         y="755.4"
         width="4.3"
         height="18.8"
         id="rect65"
         style="stroke-width:2.66666667;stroke-dasharray:none" />
      <rect
         class="st2"
         x="964.4"
         y="755.4"
         width="5"
         height="18.8"
         id="rect66"
         style="stroke-width:2.66666667;stroke-dasharray:none" />
      <rect
         class="st2"
         x="959.9"
         y="755.4"
         width="4.6"
         height="18.8"
         id="rect67"
         style="stroke-width:2.66666667;stroke-dasharray:none" />
    </g>
    <g
       id="g75"
       style="stroke-width:2.66666667;stroke-dasharray:none">
      <rect
         class="st2"
         x="978.7"
         y="732.2"
         width="5"
         height="18.8"
         id="rect68"
         style="stroke-width:2.66666667;stroke-dasharray:none" />
      <rect
         class="st2"
         x="973.7"
         y="732.2"
         width="5"
         height="18.8"
         id="rect69"
         style="stroke-width:2.66666667;stroke-dasharray:none" />
      <rect
         class="st2"
         x="988.5"
         y="732.2"
         width="5"
         height="18.8"
         id="rect70"
         style="stroke-width:2.66666667;stroke-dasharray:none" />
      <rect
         class="st2"
         x="993.3"
         y="732.2"
         width="5"
         height="18.8"
         id="rect71"
         style="stroke-width:2.66666667;stroke-dasharray:none" />
      <rect
         class="st2"
         x="983.5"
         y="732.2"
         width="5"
         height="18.8"
         id="rect72"
         style="stroke-width:2.66666667;stroke-dasharray:none" />
      <rect
         class="st2"
         x="969.4"
         y="732.2"
         width="4.3"
         height="18.8"
         id="rect73"
         style="stroke-width:2.66666667;stroke-dasharray:none" />
      <rect
         class="st2"
         x="964.4"
         y="732.2"
         width="5"
         height="18.8"
         id="rect74"
         style="stroke-width:2.66666667;stroke-dasharray:none" />
      <rect
         class="st2"
         x="959.9"
         y="732.2"
         width="4.6"
         height="18.8"
         id="rect75"
         style="stroke-width:2.66666667;stroke-dasharray:none" />
    </g>
    <g
       id="g83"
       style="stroke-width:2.66666667;stroke-dasharray:none">
      <rect
         class="st2"
         x="187.2"
         y="718"
         width="5.1"
         height="13.7"
         id="rect76"
         style="stroke-width:2.66666667;stroke-dasharray:none" />
      <rect
         class="st2"
         x="182.1"
         y="718"
         width="5.1"
         height="13.7"
         id="rect77"
         style="stroke-width:2.66666667;stroke-dasharray:none" />
      <rect
         class="st2"
         x="197.2"
         y="718"
         width="5.1"
         height="13.7"
         id="rect78"
         style="stroke-width:2.66666667;stroke-dasharray:none" />
      <rect
         class="st2"
         x="202"
         y="718"
         width="5.1"
         height="13.7"
         id="rect79"
         style="stroke-width:2.66666667;stroke-dasharray:none" />
      <rect
         class="st2"
         x="192.1"
         y="718"
         width="5.1"
         height="13.7"
         id="rect80"
         style="stroke-width:2.66666667;stroke-dasharray:none" />
      <rect
         class="st2"
         x="177.7"
         y="718"
         width="4.4"
         height="13.7"
         id="rect81"
         style="stroke-width:2.66666667;stroke-dasharray:none" />
      <rect
         class="st2"
         x="172.6"
         y="718"
         width="5.1"
         height="13.7"
         id="rect82"
         style="stroke-width:2.66666667;stroke-dasharray:none" />
      <rect
         class="st2"
         x="167.9"
         y="718"
         width="4.7"
         height="13.7"
         id="rect83"
         style="stroke-width:2.66666667;stroke-dasharray:none" />
    </g>
    <g
       id="g91"
       style="stroke-width:2.66666667;stroke-dasharray:none">
      <rect
         class="st2"
         x="187.2"
         y="704.3"
         width="5.1"
         height="13.7"
         id="rect84"
         style="stroke-width:2.66666667;stroke-dasharray:none" />
      <rect
         class="st2"
         x="182.1"
         y="704.3"
         width="5.1"
         height="13.7"
         id="rect85"
         style="stroke-width:2.66666667;stroke-dasharray:none" />
      <rect
         class="st2"
         x="197.2"
         y="704.3"
         width="5.1"
         height="13.7"
         id="rect86"
         style="stroke-width:2.66666667;stroke-dasharray:none" />
      <rect
         class="st2"
         x="202"
         y="704.3"
         width="5.1"
         height="13.7"
         id="rect87"
         style="stroke-width:2.66666667;stroke-dasharray:none" />
      <rect
         class="st2"
         x="192.1"
         y="704.3"
         width="5.1"
         height="13.7"
         id="rect88"
         style="stroke-width:2.66666667;stroke-dasharray:none" />
      <rect
         class="st2"
         x="177.7"
         y="704.3"
         width="4.4"
         height="13.7"
         id="rect89"
         style="stroke-width:2.66666667;stroke-dasharray:none" />
      <rect
         class="st2"
         x="172.6"
         y="704.3"
         width="5.1"
         height="13.7"
         id="rect90"
         style="stroke-width:2.66666667;stroke-dasharray:none" />
      <rect
         class="st2"
         x="167.9"
         y="704.3"
         width="4.7"
         height="13.7"
         id="rect91"
         style="stroke-width:2.66666667;stroke-dasharray:none" />
    </g>
    <line
       class="st2"
       x1="1006.4"
       y1="694.2"
       x2="934"
       y2="694.2"
       id="line92"
       style="stroke-width:2.66666667;stroke-dasharray:none" />
    <line
       class="st2"
       x1="58.099998"
       y1="538.09998"
       x2="58.099998"
       y2="704.21936"
       id="line93"
       style="stroke-width:2.61234;stroke-dasharray:none" />
    <line
       class="st2"
       x1="138.03961"
       y1="704.27972"
       x2="56.843483"
       y2="704.27972"
       id="line94"
       style="stroke-width:2.6899;stroke-dasharray:none" />
    <line
       class="st2"
       x1="137.89999"
       y1="704.29999"
       x2="430.59955"
       y2="704.29999"
       id="line95"
       style="stroke-width:2.66666667;stroke-dasharray:none"
       inkscape:transform-center-x="1.3414938"
       inkscape:transform-center-y="0.39488554" />
    <line
       class="st2"
       x1="137.9"
       y1="712.8"
       x2="137.9"
       y2="703.5"
       id="line96"
       style="stroke-width:2.66666667;stroke-dasharray:none" />
    <line
       class="st2"
       x1="311.9"
       y1="704.3"
       x2="311.9"
       y2="538.1"
       id="line97"
       style="stroke-width:2.66666667;stroke-dasharray:none" />
    <line
       class="st2"
       x1="429.2"
       y1="703.5"
       x2="429.2"
       y2="538.1"
       id="line98"
       style="stroke-width:2.66666667;stroke-dasharray:none" />
    <line
       class="st2"
       x1="472.8"
       y1="704.3"
       x2="472.8"
       y2="538.1"
       id="line99"
       style="stroke-width:2.66666667;stroke-dasharray:none" />
    <line
       class="st2"
       x1="547.8"
       y1="704.3"
       x2="547.8"
       y2="538.1"
       id="line100"
       style="stroke-width:2.66666667;stroke-dasharray:none" />
    <line
       class="st2"
       x1="906.3"
       y1="417"
       x2="906.3"
       y2="190.6"
       id="line101"
       style="stroke-width:2.66666667;stroke-dasharray:none" />
    <line
       class="st2"
       x1="729.4"
       y1="417"
       x2="729.4"
       y2="183.4"
       id="line102"
       style="stroke-width:2.66666667;stroke-dasharray:none" />
    <line
       class="st2"
       x1="906.3"
       y1="499.8"
       x2="856.8"
       y2="499.8"
       id="line103"
       style="stroke-width:2.66666667;stroke-dasharray:none" />
    <line
       class="st2"
       x1="856.8"
       y1="345.5"
       x2="856.8"
       y2="499.8"
       id="line104"
       style="stroke-width:2.66666667;stroke-dasharray:none" />
    <line
       class="st2"
       x1="906.3"
       y1="345.5"
       x2="817.8"
       y2="345.5"
       id="line105"
       style="stroke-width:2.66666667;stroke-dasharray:none" />
    <line
       class="st2"
       x1="1006.1"
       y1="660.6"
       x2="934"
       y2="660.6"
       id="line106"
       style="stroke-width:2.66666667;stroke-dasharray:none" />
    <rect
       class="st0"
       width="1328"
       height="1328"
       id="rect106"
       style="stroke-width:2.66666667;stroke-dasharray:none" />
    <g
       id="g107"
       style="stroke-width:2.66667;stroke-dasharray:none"
       transform="translate(17.870479,-1.9545837)"
       inkscape:transform-center-x="15.357443"
       inkscape:transform-center-y="1.116905">
      <path
         class="st3"
         d="m 416.9,755.5 -2,-8.1 h 1.1 l 1,4.1 c 0.2,1 0.5,2 0.6,2.8 v 0 c 0.1,-0.8 0.4,-1.8 0.7,-2.8 l 1.1,-4.1 h 1.1 l 1,4.1 c 0.2,1 0.4,1.9 0.6,2.8 v 0 c 0.2,-0.9 0.4,-1.8 0.6,-2.8 l 1.1,-4.1 h 1.1 l -2.3,8.1 h -1.1 l -1,-4.2 c -0.2,-1 -0.4,-1.8 -0.5,-2.6 v 0 c -0.1,0.8 -0.3,1.6 -0.6,2.6 l -1.1,4.2 h -1.1 z"
         id="path106"
         style="stroke-width:2.66667;stroke-dasharray:none" />
      <path
         class="st3"
         d="m 431.4,755.2 c -0.4,0.2 -1.1,0.4 -2.1,0.4 -2.3,0 -4,-1.4 -4,-4.1 0,-2.7 1.7,-4.2 4.2,-4.2 2.5,0 1.6,0.2 1.9,0.4 l -0.2,0.8 c -0.4,-0.2 -1,-0.3 -1.6,-0.3 -1.9,0 -3.1,1.2 -3.1,3.3 0,2.1 1.1,3.2 3.1,3.2 2,0 1.3,-0.1 1.7,-0.3 l 0.2,0.8 v 0 z"
         id="path107"
         style="stroke-width:2.66667;stroke-dasharray:none" />
    </g>
    <rect
       class="st0"
       x="383.7"
       y="731.8"
       width="78.9"
       height="39.3"
       id="rect107"
       style="stroke-width:2.66666667;stroke-dasharray:none" />
    <rect
       class="st1"
       x="934"
       y="660.6"
       width="72.5"
       height="33.6"
       id="rect108"
       style="stroke-width:2.66666667;stroke-dasharray:none" />
    <g
       id="g109"
       style="stroke-width:2.66666667;stroke-dasharray:none">
      <path
         class="st3"
         d="M964,681.5l-2-8.1h1.1l1,4.1c.2,1,.5,2,.6,2.8h0c.1-.8.4-1.8.7-2.8l1.1-4.1h1.1l1,4.1c.2,1,.4,1.9.6,2.8h0c.2-.9.4-1.8.7-2.8l1.1-4.1h1.1l-2.3,8.1h-1.1l-1-4.2c-.2-1-.4-1.8-.5-2.6h0c-.1.8-.3,1.6-.6,2.6l-1.2,4.2h-1.1,0Z"
         id="path108"
         style="stroke-width:2.66666667;stroke-dasharray:none" />
      <path
         class="st3"
         d="M978.5,681.2c-.4.2-1.2.4-2.1.4-2.3,0-4-1.4-4-4.1s1.7-4.2,4.2-4.2,1.6.2,1.9.4l-.2.8c-.4-.2-1-.3-1.6-.3-1.9,0-3.2,1.2-3.2,3.3s1.1,3.2,3.1,3.2,1.3-.1,1.7-.3l.2.8h0Z"
         id="path109"
         style="stroke-width:2.66666667;stroke-dasharray:none" />
    </g>
    <rect
       class="st2"
       x="856.88257"
       y="345.77789"
       width="49.139523"
       height="227.37703"
       id="rect109"
       style="stroke-width:2.68074;stroke-dasharray:none" />
    <g
       id="g111"
       style="stroke-width:2.66667;stroke-dasharray:none"
       transform="translate(0.19744277,37.618574)">
      <path
         class="st3"
         d="m 875.3,426.7 -2,-8.1 h 1.1 l 1,4.1 c 0.2,1 0.5,2 0.6,2.8 v 0 c 0.1,-0.8 0.4,-1.8 0.7,-2.8 l 1.1,-4.1 h 1.1 l 1,4.1 c 0.2,1 0.4,1.9 0.6,2.8 v 0 c 0.2,-0.9 0.4,-1.8 0.7,-2.8 l 1.1,-4.1 h 1.1 l -2.3,8.1 H 880 l -1,-4.2 c -0.2,-1 -0.4,-1.8 -0.5,-2.6 v 0 c -0.1,0.8 -0.3,1.6 -0.6,2.6 l -1.2,4.2 h -1.1 v 0 z"
         id="path110"
         style="stroke-width:2.66667;stroke-dasharray:none" />
      <path
         class="st3"
         d="m 889.8,426.4 c -0.4,0.2 -1.2,0.4 -2.1,0.4 -2.3,0 -4,-1.4 -4,-4.1 0,-2.7 1.7,-4.2 4.2,-4.2 2.5,0 1.6,0.2 1.9,0.4 l -0.2,0.9 c -0.4,-0.2 -1,-0.3 -1.6,-0.3 -1.9,0 -3.2,1.2 -3.2,3.3 0,2.1 1.1,3.2 3.1,3.2 2,0 1.3,-0.1 1.7,-0.3 l 0.2,0.8 v 0 z"
         id="path111"
         style="stroke-width:2.66667;stroke-dasharray:none" />
    </g>
    <rect
       class="st2"
       x="821.57166"
       y="655.0318"
       width="74.665184"
       height="178.33186"
       id="rect109-6"
       style="fill:none;stroke:#1d1d1b;stroke-width:2.55321;stroke-miterlimit:10;stroke-dasharray:none" />
    <line
       class="st2"
       x1="471.51505"
       y1="704.24316"
       x2="784.31891"
       y2="704.24316"
       id="line95-9"
       style="fill:none;stroke:#1d1d1b;stroke-width:2.66666675;stroke-miterlimit:10;stroke-dasharray:none"
       inkscape:transform-center-x="1.4336254"
       inkscape:transform-center-y="0.39488554" />
    <line
       class="st2"
       x1="574.45404"
       y1="703.20288"
       x2="574.45404"
       y2="658.42047"
       id="line4-4"
       style="fill:none;stroke:#1d1d1b;stroke-width:2.66666667;stroke-miterlimit:10;stroke-dasharray:none" />
  </g>
  <line
     class="st2"
     x1="729.4"
     y1="232.2"
     x2="817.8"
     y2="232.2"
     id="line111"
     style="stroke-width:2.66666667;stroke-dasharray:none" />
  <line
     class="st2"
     x1="817.8"
     y1="385.9"
     x2="729.4"
     y2="385.9"
     id="line112"
     style="stroke-width:2.66666667;stroke-dasharray:none" />
  <line
     class="st2"
     x1="729.4"
     y1="510"
     x2="817.8"
     y2="510"
     id="line113"
     style="stroke-width:2.66666667;stroke-dasharray:none" />
  <polyline
     class="st2"
     points="232.4 731.8 232.4 786.9 137.9 786.9"
     id="polyline113"
     style="stroke-width:2.66666667;stroke-dasharray:none" />
  <polyline
     class="st2"
     points="338.1 731.8 338.1 782.9 383.7 782.9"
     id="polyline114"
     style="stroke-width:2.66666667;stroke-dasharray:none" />
  <line
     class="st2"
     x1="825.68182"
     y1="1052.9073"
     x2="825.68182"
     y2="896.18463"
     id="line100-4"
     style="fill:none;stroke:#1d1d1b;stroke-width:2.66666667;stroke-miterlimit:10;stroke-dasharray:none" />
  <line
     class="st2"
     x1="825.12787"
     y1="933.09668"
     x2="911.15851"
     y2="933.09668"
     id="line113-2"
     style="fill:none;stroke:#1d1d1b;stroke-width:2.66666667;stroke-miterlimit:10;stroke-dasharray:none" />
  <line
     class="st2"
     x1="825.71307"
     y1="1013.8409"
     x2="910.95398"
     y2="1013.8409"
     id="line113-5"
     style="fill:none;stroke:#1d1d1b;stroke-width:2.66666667;stroke-miterlimit:10;stroke-dasharray:none" />
  <line
     class="st2"
     x1="933.87213"
     y1="729.01508"
     x2="1006.4766"
     y2="729.01508"
     id="line113-2-2"
     style="fill:none;stroke:#1d1d1b;stroke-width:2.66666667;stroke-miterlimit:10;stroke-dasharray:none" />
  <line
     class="st2"
     x1="933.15906"
     y1="777.52917"
     x2="1007.343"
     y2="777.52917"
     id="line113-2-1"
     style="fill:none;stroke:#1d1d1b;stroke-width:2.66666667;stroke-miterlimit:10;stroke-dasharray:none" />
  <line
     class="st2"
     x1="934.21021"
     y1="809.68829"
     x2="1007.2095"
     y2="809.68829"
     id="line113-2-22"
     style="fill:none;stroke:#1d1d1b;stroke-width:2.66666667;stroke-miterlimit:10;stroke-dasharray:none" />
  <line
     class="st2"
     x1="971.18127"
     y1="897.74103"
     x2="971.18127"
     y2="808.9386"
     id="line100-4-8"
     style="fill:none;stroke:#1d1d1b;stroke-width:2.66666667;stroke-miterlimit:10;stroke-dasharray:none" />
  <polyline
     class="st2"
     points="338.1 731.8 338.1 782.9 383.7 782.9"
     id="polyline114-9"
     style="fill:none;stroke:#1d1d1b;stroke-width:3.29289129;stroke-miterlimit:10;stroke-dasharray:none"
     transform="matrix(0.93778809,0,0,0.69932325,102.47845,218.73447)" />
  <line
     class="st2"
     x1="472.15311"
     y1="659.51477"
     x2="548.69006"
     y2="659.51477"
     id="line113-2-3"
     style="fill:none;stroke:#1d1d1b;stroke-width:2.51523;stroke-miterlimit:10;stroke-dasharray:none" />
  <line
     class="st2"
     x1="573.69977"
     y1="659.23431"
     x2="784.82373"
     y2="659.23431"
     id="line113-2-34"
     style="fill:none;stroke:#1d1d1b;stroke-width:2.66666667;stroke-miterlimit:10;stroke-dasharray:none" />
  <line
     class="st2"
     x1="734.14972"
     y1="862.95404"
     x2="784.29974"
     y2="862.95404"
     id="line113-2-3-7"
     style="fill:none;stroke:#1d1d1b;stroke-width:2.66666667;stroke-miterlimit:10;stroke-dasharray:none" />
  <line
     class="st2"
     x1="734.245"
     y1="769.20447"
     x2="784.39502"
     y2="769.20447"
     id="line113-2-3-7-1"
     style="fill:none;stroke:#1d1d1b;stroke-width:2.66667;stroke-miterlimit:10;stroke-dasharray:none" />
  <line
     class="st2"
     x1="855.99286"
     y1="420.2576"
     x2="906.46735"
     y2="420.2576"
     id="line113-2-3-6"
     style="fill:none;stroke:#1d1d1b;stroke-width:2.66666667;stroke-miterlimit:10;stroke-dasharray:none" />
</svg>
