<?xml version="1.0" encoding="UTF-8" standalone="no"?>
<svg
   id="_Слой_2"
   data-name=" Слой 2"
   viewBox="0 0 1328 1328"
   version="1.1"
   sodipodi:docname="харьк 3 эт (1).svg"
   inkscape:version="1.4.3 (0d15f75, 2025-12-25)"
   xmlns:inkscape="http://www.inkscape.org/namespaces/inkscape"
   xmlns:sodipodi="http://sodipodi.sourceforge.net/DTD/sodipodi-0.dtd"
   xmlns="http://www.w3.org/2000/svg"
   xmlns:svg="http://www.w3.org/2000/svg">
  <sodipodi:namedview
     id="namedview61"
     pagecolor="#ffffff"
     bordercolor="#000000"
     borderopacity="0.25"
     inkscape:showpageshadow="2"
     inkscape:pageopacity="0.0"
     inkscape:pagecheckerboard="0"
     inkscape:deskcolor="#d1d1d1"
     inkscape:zoom="1.4142136"
     inkscape:cx="446.89148"
     inkscape:cy="718.06693"
     inkscape:window-width="2560"
     inkscape:window-height="1369"
     inkscape:window-x="-8"
     inkscape:window-y="-8"
     inkscape:window-maximized="1"
     inkscape:current-layer="_Слой_2" />
  <defs
     id="defs1">
    <style
       id="style1">
      .cls-1, .cls-2 {
        fill: none;
      }

      .cls-2 {
        stroke: #1d1d1b;
        stroke-miterlimit: 10;
        stroke-width: 2px;
      }

      .cls-3 {
        fill: #1d1d1b;
      }
    </style>
  </defs>
  <g
     id="_Слой_2-2"
     data-name=" Слой 2-2"
     style="stroke-width:2.66666667;stroke-dasharray:none">
    <polyline
       class="cls-2"
       points="906.42 897.19 906.42 1052.56 729.24 1052.56 729.24 897.19"
       id="polyline1"
       style="stroke-width:2.66666667;stroke-dasharray:none" />
    <polyline
       class="cls-2"
       points="729.24 538.07 729.24 897.21 137.91 897.21 137.91 711.43"
       id="polyline2"
       style="stroke-dasharray:3.99999988,1.33333333;stroke-dashoffset:0;stroke-width:1.33333333" />
    <line
       class="cls-2"
       x1="58.13"
       y1="538.07"
       x2="629.49"
       y2="538.07"
       id="line2"
       style="stroke-dasharray:3.99999988,1.33333333;stroke-dashoffset:0;stroke-width:1.33333333" />
    <line
       class="cls-2"
       x1="629.49"
       y1="573.81"
       x2="629.49"
       y2="538.07"
       id="line3"
       style="stroke-dasharray:3.99999988,1.33333333;stroke-dashoffset:0;stroke-width:1.33333333" />
    <line
       class="cls-2"
       x1="729.36"
       y1="897.21"
       x2="729.36"
       y2="571.3"
       id="line4"
       style="stroke-width:2.66666667;stroke-dasharray:none" />
    <line
       class="cls-2"
       x1="906.3"
       y1="896.75"
       x2="906.3"
       y2="573.35"
       id="line5"
       style="stroke-width:2.66666667;stroke-dasharray:none" />
    <line
       class="cls-2"
       x1="729.36"
       y1="573.84"
       x2="729.36"
       y2="417.03"
       id="line6"
       style="stroke-width:2.66700006;stroke-dasharray:none" />
    <line
       class="cls-2"
       x1="906.3"
       y1="417.03"
       x2="906.3"
       y2="573.84"
       id="line7"
       style="stroke-width:2.66666667;stroke-dasharray:none" />
    <polyline
       class="cls-2"
       points="729.36 194.11 729.36 172.66 906.3 172.66 906.3 194.11"
       id="polyline7"
       style="stroke-width:2.66700006;stroke-dasharray:none" />
    <line
       class="cls-2"
       x1="817.83"
       y1="573.81"
       x2="817.83"
       y2="172.66"
       id="line8"
       style="stroke-width:2.66700006;stroke-dasharray:none" />
    <g
       id="g15"
       style="stroke-width:2.66666667;stroke-dasharray:none">
      <rect
         class="cls-2"
         x="884.23"
         y="532.13"
         width="22.07"
         height="5.61"
         id="rect8"
         style="stroke-width:2.66666667;stroke-dasharray:none" />
      <rect
         class="cls-2"
         x="884.23"
         y="526.26"
         width="22.07"
         height="5.87"
         id="rect9"
         style="stroke-width:2.66666667;stroke-dasharray:none" />
      <rect
         class="cls-2"
         x="884.22"
         y="543.61"
         width="22.07"
         height="5.87"
         id="rect10"
         style="stroke-width:2.66666667;stroke-dasharray:none" />
      <rect
         class="cls-2"
         x="884.22"
         y="549.48"
         width="22.07"
         height="5.61"
         id="rect11"
         style="stroke-width:2.66666667;stroke-dasharray:none" />
      <rect
         class="cls-2"
         x="884.23"
         y="537.74"
         width="22.07"
         height="5.87"
         id="rect12"
         style="stroke-width:2.66666667;stroke-dasharray:none" />
      <rect
         class="cls-2"
         x="884.22"
         y="521.2"
         width="22.07"
         height="5.07"
         id="rect13"
         style="stroke-width:2.66666667;stroke-dasharray:none" />
      <rect
         class="cls-2"
         x="884.22"
         y="515.33"
         width="22.07"
         height="5.87"
         id="rect14"
         style="stroke-width:2.66666667;stroke-dasharray:none" />
      <rect
         class="cls-2"
         x="884.23"
         y="509.96"
         width="22.07"
         height="5.37"
         id="rect15"
         style="stroke-width:2.66666667;stroke-dasharray:none" />
    </g>
    <g
       id="g23"
       style="stroke-width:2.66666667;stroke-dasharray:none">
      <rect
         class="cls-2"
         x="856.83"
         y="532.13"
         width="22.07"
         height="5.61"
         id="rect16"
         style="stroke-width:2.66666667;stroke-dasharray:none" />
      <rect
         class="cls-2"
         x="856.83"
         y="526.27"
         width="22.07"
         height="5.87"
         id="rect17"
         style="stroke-width:2.66666667;stroke-dasharray:none" />
      <rect
         class="cls-2"
         x="856.82"
         y="543.61"
         width="22.07"
         height="5.87"
         id="rect18"
         style="stroke-width:2.66666667;stroke-dasharray:none" />
      <rect
         class="cls-2"
         x="856.82"
         y="549.47"
         width="22.07"
         height="5.61"
         id="rect19"
         style="stroke-width:2.66666667;stroke-dasharray:none" />
      <rect
         class="cls-2"
         x="856.82"
         y="537.75"
         width="22.07"
         height="5.87"
         id="rect20"
         style="stroke-width:2.66666667;stroke-dasharray:none" />
      <rect
         class="cls-2"
         x="856.82"
         y="521.19"
         width="22.07"
         height="5.07"
         id="rect21"
         style="stroke-width:2.66666667;stroke-dasharray:none" />
      <rect
         class="cls-2"
         x="856.82"
         y="515.33"
         width="22.07"
         height="5.87"
         id="rect22"
         style="stroke-width:2.66666667;stroke-dasharray:none" />
      <rect
         class="cls-2"
         x="856.82"
         y="509.95"
         width="22.07"
         height="5.37"
         id="rect23"
         style="stroke-width:2.66666667;stroke-dasharray:none" />
    </g>
    <line
       class="cls-2"
       x1="58.13"
       y1="538.07"
       x2="58.13"
       y2="711.19"
       id="line39"
       style="stroke-dasharray:3.99999988,1.33333333;stroke-dashoffset:0;stroke-width:1.33333333" />
    <line
       class="cls-2"
       x1="137.91"
       y1="711.43"
       x2="58.13"
       y2="711.43"
       id="line40"
       style="stroke-dasharray:3.99999988,1.33333333;stroke-dashoffset:0;stroke-width:1.33333333" />
    <line
       class="cls-2"
       x1="906.3"
       y1="417"
       x2="906.3"
       y2="190.58"
       id="line41"
       style="stroke-width:2.66700006;stroke-dasharray:none" />
    <line
       class="cls-2"
       x1="729.36"
       y1="417"
       x2="729.36"
       y2="183.38"
       id="line42"
       style="stroke-width:2.66700006;stroke-dasharray:none" />
    <line
       class="cls-2"
       x1="906.3"
       y1="499.76"
       x2="856.82"
       y2="499.76"
       id="line43"
       style="stroke-width:2.66666667;stroke-dasharray:none" />
    <line
       class="cls-2"
       x1="856.82"
       y1="366.11"
       x2="856.82"
       y2="499.76"
       id="line44"
       style="stroke-width:2.66666667;stroke-dasharray:none" />
    <line
       class="cls-2"
       x1="906.3"
       y1="366.11"
       x2="817.83"
       y2="366.11"
       id="line45"
       style="stroke-width:2.66700006;stroke-dasharray:none" />
    <line
       class="cls-2"
       x1="850.75"
       y1="766.66"
       x2="850.75"
       y2="896.75"
       id="line46"
       style="stroke-width:2.66666667;stroke-dasharray:none" />
    <line
       class="cls-2"
       x1="817.83"
       y1="573.81"
       x2="817.83"
       y2="1052.55"
       id="line48"
       style="stroke-width:2.66666667;stroke-dasharray:none" />
    <line
       class="cls-2"
       x1="906.3"
       y1="217.55"
       x2="729.36"
       y2="217.55"
       id="line49"
       style="stroke-width:2.66700006;stroke-dasharray:none" />
    <line
       class="cls-2"
       x1="817.83"
       y1="644.28"
       x2="729.36"
       y2="644.28"
       id="line50"
       style="stroke-width:2.66666667;stroke-dasharray:none" />
    <line
       class="cls-2"
       x1="817.83"
       y1="606.49"
       x2="729.36"
       y2="606.49"
       id="line51"
       style="stroke-width:2.66666667;stroke-dasharray:none" />
    <line
       class="cls-2"
       x1="817.83"
       y1="803.09"
       x2="729.36"
       y2="803.09"
       id="line52"
       style="stroke-width:2.66666667;stroke-dasharray:none" />
    <line
       class="cls-2"
       x1="817.83"
       y1="844.96"
       x2="729.36"
       y2="844.96"
       id="line53"
       style="stroke-width:2.66666667;stroke-dasharray:none" />
    <g
       id="g54"
       style="stroke-width:2.66666667;stroke-dasharray:none">
      <path
         class="cls-3"
         d="M872.3,835.76l-2.05-8.08h1.1l.96,4.09c.24,1.01.46,2.02.6,2.79h.02c.13-.8.38-1.76.66-2.81l1.08-4.08h1.09l.98,4.1c.23.96.44,1.92.56,2.77h.02c.17-.89.4-1.79.65-2.79l1.07-4.08h1.07l-2.29,8.08h-1.09l-1.02-4.21c-.25-1.03-.42-1.82-.53-2.64h-.02c-.14.8-.32,1.6-.62,2.64l-1.15,4.21h-1.09,0Z"
         id="path53"
         style="stroke-width:2.66666667;stroke-dasharray:none" />
      <path
         class="cls-3"
         d="M886.78,835.49c-.38.19-1.15.38-2.13.38-2.28,0-3.99-1.44-3.99-4.09s1.71-4.25,4.22-4.25c1.01,0,1.64.22,1.92.36l-.25.85c-.4-.19-.96-.34-1.63-.34-1.89,0-3.15,1.21-3.15,3.33,0,1.98,1.14,3.25,3.11,3.25.64,0,1.28-.13,1.7-.34l.22.83-.02.02Z"
         id="path54"
         style="stroke-width:2.66666667;stroke-dasharray:none" />
    </g>
    <rect
       class="cls-2"
       x="850.74493"
       y="767.66235"
       width="55.560001"
       height="129.09264"
       id="rect54"
       style="stroke-width:2.66666667;stroke-dasharray:none" />
    <rect
       class="cls-2"
       x="856.82"
       y="366.11"
       width="49.47"
       height="133.65"
       id="rect55"
       style="stroke-width:2.66666667;stroke-dasharray:none" />
    <g
       id="g56"
       style="stroke-width:2.66700006;stroke-dasharray:none">
      <path
         class="cls-3"
         d="M875.34,426.66l-2.05-8.08h1.1l.96,4.09c.24,1.01.46,2.02.6,2.79h.02c.13-.8.38-1.76.66-2.81l1.08-4.08h1.09l.98,4.1c.23.96.44,1.92.56,2.77h.02c.17-.89.4-1.79.65-2.79l1.07-4.08h1.07l-2.29,8.08h-1.09l-1.02-4.21c-.25-1.03-.42-1.82-.53-2.64h-.02c-.14.8-.32,1.6-.62,2.64l-1.15,4.21h-1.09,0Z"
         id="path55"
         style="stroke-width:2.66700006;stroke-dasharray:none" />
      <path
         class="cls-3"
         d="M889.82,426.4c-.38.19-1.15.38-2.13.38-2.28,0-3.99-1.44-3.99-4.09s1.71-4.25,4.22-4.25c1.01,0,1.64.22,1.92.36l-.25.85c-.4-.19-.96-.34-1.63-.34-1.89,0-3.15,1.21-3.15,3.33,0,1.98,1.14,3.25,3.11,3.25.64,0,1.28-.13,1.7-.34l.22.83-.02.02Z"
         id="path56"
         style="stroke-width:2.66700006;stroke-dasharray:none" />
    </g>
    <g
       id="g26"
       transform="translate(1.0420634,-4.352814)"
       style="stroke-width:2.66666667;stroke-dasharray:none">
      <rect
         class="st1"
         x="978.90002"
         y="755.40002"
         width="5"
         height="18.799999"
         id="rect19-4"
         style="fill:none;stroke:#1d1d1b;stroke-width:2.66666667;stroke-miterlimit:10;stroke-dasharray:none" />
      <rect
         class="st1"
         x="973.90002"
         y="755.40002"
         width="5"
         height="18.799999"
         id="rect20-8"
         style="fill:none;stroke:#1d1d1b;stroke-width:2.66666667;stroke-miterlimit:10;stroke-dasharray:none" />
      <rect
         class="st1"
         x="988.70001"
         y="755.40002"
         width="5"
         height="18.799999"
         id="rect21-8"
         style="fill:none;stroke:#1d1d1b;stroke-width:2.66666667;stroke-miterlimit:10;stroke-dasharray:none" />
      <rect
         class="st1"
         x="993.70001"
         y="755.40002"
         width="4.8000002"
         height="18.799999"
         id="rect22-2"
         style="fill:none;stroke:#1d1d1b;stroke-width:2.66666667;stroke-miterlimit:10;stroke-dasharray:none" />
      <rect
         class="st1"
         x="983.90002"
         y="755.40002"
         width="4.8000002"
         height="18.799999"
         id="rect23-4"
         style="fill:none;stroke:#1d1d1b;stroke-width:2.66666667;stroke-miterlimit:10;stroke-dasharray:none" />
      <rect
         class="st1"
         x="969.59998"
         y="755.40002"
         width="4.3000002"
         height="18.799999"
         id="rect24"
         style="fill:none;stroke:#1d1d1b;stroke-width:2.66666667;stroke-miterlimit:10;stroke-dasharray:none" />
      <rect
         class="st1"
         x="964.59998"
         y="755.40002"
         width="5"
         height="18.799999"
         id="rect25"
         style="fill:none;stroke:#1d1d1b;stroke-width:2.66666667;stroke-miterlimit:10;stroke-dasharray:none" />
      <rect
         class="st1"
         x="960"
         y="755.40002"
         width="4.5999999"
         height="18.799999"
         id="rect26"
         style="fill:none;stroke:#1d1d1b;stroke-width:2.66666667;stroke-miterlimit:10;stroke-dasharray:none" />
    </g>
    <g
       id="g34"
       transform="translate(1.0420634,-4.352814)"
       style="stroke-width:2.66666667;stroke-dasharray:none">
      <rect
         class="st1"
         x="978.79999"
         y="732.20001"
         width="5"
         height="18.799999"
         id="rect27"
         style="fill:none;stroke:#1d1d1b;stroke-width:2.66666667;stroke-miterlimit:10;stroke-dasharray:none" />
      <rect
         class="st1"
         x="973.90002"
         y="732.20001"
         width="5"
         height="18.799999"
         id="rect28"
         style="fill:none;stroke:#1d1d1b;stroke-width:2.66666667;stroke-miterlimit:10;stroke-dasharray:none" />
      <rect
         class="st1"
         x="988.59998"
         y="732.20001"
         width="5"
         height="18.799999"
         id="rect29"
         style="fill:none;stroke:#1d1d1b;stroke-width:2.66666667;stroke-miterlimit:10;stroke-dasharray:none" />
      <rect
         class="st1"
         x="993.59998"
         y="732.20001"
         width="4.8000002"
         height="18.799999"
         id="rect30"
         style="fill:none;stroke:#1d1d1b;stroke-width:2.66666667;stroke-miterlimit:10;stroke-dasharray:none" />
      <rect
         class="st1"
         x="983.79999"
         y="732.20001"
         width="4.8000002"
         height="18.799999"
         id="rect31"
         style="fill:none;stroke:#1d1d1b;stroke-width:2.66666667;stroke-miterlimit:10;stroke-dasharray:none" />
      <rect
         class="st1"
         x="969.5"
         y="732.20001"
         width="4.3000002"
         height="18.799999"
         id="rect32"
         style="fill:none;stroke:#1d1d1b;stroke-width:2.66666667;stroke-miterlimit:10;stroke-dasharray:none" />
      <rect
         class="st1"
         x="964.5"
         y="732.20001"
         width="5"
         height="18.799999"
         id="rect33"
         style="fill:none;stroke:#1d1d1b;stroke-width:2.66666667;stroke-miterlimit:10;stroke-dasharray:none" />
      <rect
         class="st1"
         x="960"
         y="732.20001"
         width="4.5999999"
         height="18.799999"
         id="rect34"
         style="fill:none;stroke:#1d1d1b;stroke-width:2.66666667;stroke-miterlimit:10;stroke-dasharray:none" />
    </g>
    <rect
       class="st1"
       x="935.04205"
       y="718.84717"
       width="90.699997"
       height="59.900002"
       id="rect48"
       style="fill:none;stroke:#1d1d1b;stroke-width:2.66666667;stroke-miterlimit:10;stroke-dasharray:none" />
    <line
       class="st1"
       x1="935.04205"
       y1="727.84717"
       x2="907.44208"
       y2="727.84717"
       id="line49-5"
       style="fill:none;stroke:#1d1d1b;stroke-width:2.66666667;stroke-miterlimit:10;stroke-dasharray:none" />
    <line
       class="st1"
       x1="935.04205"
       y1="767.44714"
       x2="907.44208"
       y2="767.44714"
       id="line50-5"
       style="fill:none;stroke:#1d1d1b;stroke-width:2.66666667;stroke-miterlimit:10;stroke-dasharray:none" />
    <rect
       class="st0"
       width="1328"
       height="1328"
       id="rect50"
       style="fill:none;stroke-width:2.66666667;stroke-dasharray:none"
       x="1.0420634"
       y="-4.3528137" />
  </g>
  <line
     class="cls-2"
     x1="817.08002"
     y1="483.81"
     x2="728.62"
     y2="483.81"
     id="line56"
     style="stroke-width:2.66667;stroke-dasharray:none" />
  <line
     class="cls-2"
     x1="729.36"
     y1="409.15"
     x2="817.83"
     y2="409.15"
     id="line57"
     style="stroke-width:2.66700006;stroke-dasharray:none" />
  <line
     class="cls-2"
     x1="817.95"
     y1="1008.09"
     x2="729.48"
     y2="1008.09"
     id="line58"
     style="stroke-width:2.66666667;stroke-dasharray:none" />
  <rect
     class="cls-2"
     x="817.83"
     y="896.75"
     width="88.71"
     height="155.81"
     id="rect58"
     style="stroke-width:2.66666667;stroke-dasharray:none" />
  <line
     class="cls-2"
     x1="906.54"
     y1="896.75"
     x2="1006.43"
     y2="896.75"
     id="line59"
     style="stroke-dasharray:3.99999988,1.33333333;stroke-dashoffset:0;stroke-width:1.33333333" />
  <line
     class="cls-2"
     x1="629.49"
     y1="573.81"
     x2="729.24"
     y2="573.81"
     id="line60"
     style="stroke-dasharray:3.99999988,1.33333333;stroke-dashoffset:0;stroke-width:1.33333333" />
  <line
     class="cls-2"
     x1="906.54"
     y1="573.84"
     x2="1006.43"
     y2="573.84"
     id="line61"
     style="stroke-dasharray:3.99999988,1.33333333;stroke-dashoffset:0;stroke-width:1.33333333" />
  <line
     class="cls-2"
     x1="1005.3919"
     y1="525.34943"
     x2="1271.5288"
     y2="525.34943"
     id="line61-4"
     style="fill:none;stroke:#1d1d1b;stroke-width:1.33333;stroke-miterlimit:10;stroke-dasharray:4, 1.33333;stroke-dashoffset:0" />
  <line
     class="cls-2"
     x1="1005.7546"
     y1="937.57104"
     x2="1271.5343"
     y2="937.57104"
     id="line61-2"
     style="fill:none;stroke:#1d1d1b;stroke-width:1.33271;stroke-miterlimit:10;stroke-dasharray:3.99812, 1.33271;stroke-dashoffset:0" />
  <line
     class="cls-2"
     x1="1270.2534"
     y1="524.71106"
     x2="1270.2534"
     y2="938.15033"
     id="line61-2-5"
     style="fill:none;stroke:#1d1d1b;stroke-width:1.33191;stroke-miterlimit:10;stroke-dasharray:3.99573, 1.33191;stroke-dashoffset:0" />
  <line
     class="cls-2"
     x1="1006.5787"
     y1="896.41565"
     x2="1006.5787"
     y2="938.90656"
     id="line61-2-5-1"
     style="fill:none;stroke:#1d1d1b;stroke-width:1.33333333;stroke-miterlimit:10;stroke-dasharray:3.99999988,1.33333333;stroke-dashoffset:0" />
  <line
     class="cls-2"
     x1="1005.9962"
     y1="524.62659"
     x2="1005.9962"
     y2="574.23773"
     id="line61-2-5-1-2"
     style="fill:none;stroke:#1d1d1b;stroke-width:1.33333333;stroke-miterlimit:10;stroke-dasharray:3.99999988,1.33333333;stroke-dashoffset:0" />
</svg>
