<?xml version="1.0" encoding="UTF-8" standalone="no"?>
<svg
   id="_Слой_2"
   version="1.1"
   viewBox="0 0 1328 1328"
   sodipodi:docname="харьк 4 эт (1).svg"
   inkscape:version="1.4.3 (0d15f75, 2025-12-25)"
   xmlns:inkscape="http://www.inkscape.org/namespaces/inkscape"
   xmlns:sodipodi="http://sodipodi.sourceforge.net/DTD/sodipodi-0.dtd"
   xmlns="http://www.w3.org/2000/svg"
   xmlns:svg="http://www.w3.org/2000/svg">
  <sodipodi:namedview
     id="namedview53"
     pagecolor="#ffffff"
     bordercolor="#000000"
     borderopacity="0.25"
     inkscape:showpageshadow="2"
     inkscape:pageopacity="0.0"
     inkscape:pagecheckerboard="0"
     inkscape:deskcolor="#d1d1d1"
     inkscape:zoom="0.89533133"
     inkscape:cx="-86.001682"
     inkscape:cy="783.50883"
     inkscape:window-width="2560"
     inkscape:window-height="1369"
     inkscape:window-x="-8"
     inkscape:window-y="-8"
     inkscape:window-maximized="1"
     inkscape:current-layer="_Слой_2" />
  <!-- Generator: Adobe Illustrator 29.2.1, SVG Export Plug-In . SVG Version: 2.1.0 Build 116)  -->
  <defs
     id="defs1">
    <style
       id="style1">
      .st0, .st1 {
        fill: none;
      }

      .st1 {
        stroke: #ffffff;
        stroke-miterlimit: 10;
        stroke-width: 2px;
      }

      .st2 {
        fill: none;
      }
    </style>
  </defs>
  <polyline
     class="st1"
     points="906.5 1015 906.5 1052.6 729.5 1052.6 729.5 1015"
     id="polyline1"
     style="stroke-width:2.66666667;stroke-dasharray:none" />
  <line
     class="st1"
     x1="729.5"
     y1="1053.1798"
     x2="729.5"
     y2="571.29999"
     id="line1"
     style="stroke-width:2.66666667;stroke-dasharray:none" />
  <line
     class="st1"
     x1="906.40002"
     y1="1053.5696"
     x2="906.40002"
     y2="573.29999"
     id="line2"
     style="stroke-width:2.66666667;stroke-dasharray:none" />
  <polyline
     class="st1"
     points="729.5 194.1 729.5 172.7 906.4 172.7 906.4 194.1"
     id="polyline2"
     style="stroke-width:2.66666667;stroke-dasharray:none" />
  <line
     class="st1"
     x1="818"
     y1="573.8"
     x2="818"
     y2="172.7"
     id="line3"
     style="stroke-width:2.66666667;stroke-dasharray:none" />
  <g
     id="g10"
     style="stroke-width:2.66666667;stroke-dasharray:none">
    <rect
       class="st1"
       x="884.3"
       y="532.1"
       width="22.1"
       height="5.9"
       id="rect3"
       style="stroke-width:2.66666667;stroke-dasharray:none" />
    <rect
       class="st1"
       x="884.3"
       y="526.3"
       width="22.1"
       height="5.9"
       id="rect4"
       style="stroke-width:2.66666667;stroke-dasharray:none" />
    <rect
       class="st1"
       x="884.3"
       y="543.6"
       width="22.1"
       height="5.9"
       id="rect5"
       style="stroke-width:2.66666667;stroke-dasharray:none" />
    <rect
       class="st1"
       x="884.4"
       y="549.5"
       width="22.1"
       height="5.6"
       id="rect6"
       style="stroke-width:2.66666667;stroke-dasharray:none" />
    <rect
       class="st1"
       x="884.3"
       y="538"
       width="22.1"
       height="5.6"
       id="rect7"
       style="stroke-width:2.66666667;stroke-dasharray:none" />
    <rect
       class="st1"
       x="884.3"
       y="521.2"
       width="22.1"
       height="5.1"
       id="rect8"
       style="stroke-width:2.66666667;stroke-dasharray:none" />
    <rect
       class="st1"
       x="884.4"
       y="515.3"
       width="22.1"
       height="5.9"
       id="rect9"
       style="stroke-width:2.66666667;stroke-dasharray:none" />
    <rect
       class="st1"
       x="884.3"
       y="510"
       width="22.1"
       height="5.4"
       id="rect10"
       style="stroke-width:2.66666667;stroke-dasharray:none" />
  </g>
  <g
     id="g18"
     style="stroke-width:2.66666667;stroke-dasharray:none">
    <rect
       class="st1"
       x="856.9"
       y="532.1"
       width="22.1"
       height="5.9"
       id="rect11"
       style="stroke-width:2.66666667;stroke-dasharray:none" />
    <rect
       class="st1"
       x="856.9"
       y="526.3"
       width="22.1"
       height="5.9"
       id="rect12"
       style="stroke-width:2.66666667;stroke-dasharray:none" />
    <rect
       class="st1"
       x="856.9"
       y="543.6"
       width="22.1"
       height="5.9"
       id="rect13"
       style="stroke-width:2.66666667;stroke-dasharray:none" />
    <rect
       class="st1"
       x="857"
       y="549.5"
       width="22.1"
       height="5.6"
       id="rect14"
       style="stroke-width:2.66666667;stroke-dasharray:none" />
    <rect
       class="st1"
       x="856.9"
       y="538"
       width="22.1"
       height="5.6"
       id="rect15"
       style="stroke-width:2.66666667;stroke-dasharray:none" />
    <rect
       class="st1"
       x="856.9"
       y="521.2"
       width="22.1"
       height="5.1"
       id="rect16"
       style="stroke-width:2.66666667;stroke-dasharray:none" />
    <rect
       class="st1"
       x="857"
       y="515.3"
       width="22.1"
       height="5.9"
       id="rect17"
       style="stroke-width:2.66666667;stroke-dasharray:none" />
    <rect
       class="st1"
       x="856.9"
       y="510"
       width="22.1"
       height="5.4"
       id="rect18"
       style="stroke-width:2.66666667;stroke-dasharray:none" />
  </g>
  <g
     id="g26"
     transform="translate(0,-5.0260723)"
     style="stroke-width:2.66666667;stroke-dasharray:none">
    <rect
       class="st1"
       x="978.90002"
       y="755.40002"
       width="5"
       height="18.799999"
       id="rect19"
       style="stroke-width:2.66666667;stroke-dasharray:none" />
    <rect
       class="st1"
       x="973.90002"
       y="755.40002"
       width="5"
       height="18.799999"
       id="rect20"
       style="stroke-width:2.66666667;stroke-dasharray:none" />
    <rect
       class="st1"
       x="988.70001"
       y="755.40002"
       width="5"
       height="18.799999"
       id="rect21"
       style="stroke-width:2.66666667;stroke-dasharray:none" />
    <rect
       class="st1"
       x="993.70001"
       y="755.40002"
       width="4.8000002"
       height="18.799999"
       id="rect22"
       style="stroke-width:2.66666667;stroke-dasharray:none" />
    <rect
       class="st1"
       x="983.90002"
       y="755.40002"
       width="4.8000002"
       height="18.799999"
       id="rect23"
       style="stroke-width:2.66666667;stroke-dasharray:none" />
    <rect
       class="st1"
       x="969.59998"
       y="755.40002"
       width="4.3000002"
       height="18.799999"
       id="rect24"
       style="stroke-width:2.66666667;stroke-dasharray:none" />
    <rect
       class="st1"
       x="964.59998"
       y="755.40002"
       width="5"
       height="18.799999"
       id="rect25"
       style="stroke-width:2.66666667;stroke-dasharray:none" />
    <rect
       class="st1"
       x="960"
       y="755.40002"
       width="4.5999999"
       height="18.799999"
       id="rect26"
       style="stroke-width:2.66666667;stroke-dasharray:none" />
  </g>
  <g
     id="g34"
     transform="translate(0,-5.0260723)"
     style="stroke-width:2.66666667;stroke-dasharray:none">
    <rect
       class="st1"
       x="978.79999"
       y="732.20001"
       width="5"
       height="18.799999"
       id="rect27"
       style="stroke-width:2.66666667;stroke-dasharray:none" />
    <rect
       class="st1"
       x="973.90002"
       y="732.20001"
       width="5"
       height="18.799999"
       id="rect28"
       style="stroke-width:2.66666667;stroke-dasharray:none" />
    <rect
       class="st1"
       x="988.59998"
       y="732.20001"
       width="5"
       height="18.799999"
       id="rect29"
       style="stroke-width:2.66666667;stroke-dasharray:none" />
    <rect
       class="st1"
       x="993.59998"
       y="732.20001"
       width="4.8000002"
       height="18.799999"
       id="rect30"
       style="stroke-width:2.66666667;stroke-dasharray:none" />
    <rect
       class="st1"
       x="983.79999"
       y="732.20001"
       width="4.8000002"
       height="18.799999"
       id="rect31"
       style="stroke-width:2.66666667;stroke-dasharray:none" />
    <rect
       class="st1"
       x="969.5"
       y="732.20001"
       width="4.3000002"
       height="18.799999"
       id="rect32"
       style="stroke-width:2.66666667;stroke-dasharray:none" />
    <rect
       class="st1"
       x="964.5"
       y="732.20001"
       width="5"
       height="18.799999"
       id="rect33"
       style="stroke-width:2.66666667;stroke-dasharray:none" />
    <rect
       class="st1"
       x="960"
       y="732.20001"
       width="4.5999999"
       height="18.799999"
       id="rect34"
       style="stroke-width:2.66666667;stroke-dasharray:none" />
  </g>
  <line
     class="st1"
     x1="906.4"
     y1="417"
     x2="906.4"
     y2="190.6"
     id="line34"
     style="stroke-width:2.66666667;stroke-dasharray:none" />
  <line
     class="st1"
     x1="729.5"
     y1="417"
     x2="729.5"
     y2="183.4"
     id="line35"
     style="stroke-width:2.66666667;stroke-dasharray:none" />
  <line
     class="st1"
     x1="906.4"
     y1="499.8"
     x2="858.3"
     y2="499.8"
     id="line36"
     style="stroke-width:2.66666667;stroke-dasharray:none" />
  <line
     class="st1"
     x1="856.9"
     y1="345.5"
     x2="856.9"
     y2="499.8"
     id="line37"
     style="stroke-width:2.66666667;stroke-dasharray:none" />
  <line
     class="st1"
     x1="906.4"
     y1="345.5"
     x2="818"
     y2="345.5"
     id="line38"
     style="stroke-width:2.66666667;stroke-dasharray:none" />
  <line
     class="st1"
     x1="858.6"
     y1="766.7"
     x2="858.6"
     y2="896.8"
     id="line39"
     style="stroke-width:2.66666667;stroke-dasharray:none" />
  <line
     class="st1"
     x1="906.5"
     y1="766.70001"
     x2="857.58978"
     y2="766.70001"
     id="line40"
     style="stroke-width:2.66666667;stroke-dasharray:none" />
  <line
     class="st1"
     x1="818"
     y1="573.8"
     x2="818"
     y2="1052.6"
     id="line41"
     style="stroke-width:2.66666667;stroke-dasharray:none" />
  <line
     class="st1"
     x1="818"
     y1="217.6"
     x2="729.5"
     y2="217.6"
     id="line42"
     style="stroke-width:2.66666667;stroke-dasharray:none" />
  <line
     class="st1"
     x1="729.44214"
     y1="368.94196"
     x2="817.94214"
     y2="368.94196"
     id="line43"
     style="stroke-width:2.66666667;stroke-dasharray:none" />
  <line
     class="st1"
     x1="729.5"
     y1="488.5"
     x2="818"
     y2="488.5"
     id="line44"
     style="stroke-width:2.66666667;stroke-dasharray:none" />
  <line
     class="st1"
     x1="818"
     y1="606.5"
     x2="729.5"
     y2="606.5"
     id="line45"
     style="stroke-width:2.66666667;stroke-dasharray:none" />
  <line
     class="st1"
     x1="906.4"
     y1="417"
     x2="906.4"
     y2="578.2"
     id="line47"
     style="stroke-width:2.66666667;stroke-dasharray:none" />
  <line
     class="st1"
     x1="729.5"
     y1="414.7"
     x2="729.5"
     y2="571.3"
     id="line48"
     style="stroke-width:2.66666667;stroke-dasharray:none" />
  <rect
     class="st1"
     x="934"
     y="718.17395"
     width="90.699997"
     height="59.900002"
     id="rect48"
     style="stroke-width:2.66666667;stroke-dasharray:none" />
  <line
     class="st1"
     x1="934"
     y1="727.17395"
     x2="906.40002"
     y2="727.17395"
     id="line49"
     style="stroke-width:2.66666667;stroke-dasharray:none" />
  <line
     class="st1"
     x1="934"
     y1="766.77393"
     x2="906.40002"
     y2="766.77393"
     id="line50"
     style="stroke-width:2.66666667;stroke-dasharray:none" />
  <rect
     class="st0"
     width="1328"
     height="1328"
     id="rect50"
     x="0"
     y="-5.0260725"
     style="stroke-width:2.66666667;stroke-dasharray:none" />
  <rect
     class="st1"
     x="857.21014"
     y="345.81012"
     width="48.879784"
     height="237.39552"
     id="rect51"
     style="stroke-width:2.66666667;stroke-dasharray:none" />
  <g
     id="g52"
     style="stroke-width:2.66666667;stroke-dasharray:none"
     transform="translate(0.59232829,39.88344)">
    <path
       class="st2"
       d="m 875.5,426.7 -2,-8.1 h 1.1 l 1,4.1 c 0.2,1 0.5,2 0.6,2.8 v 0 c 0.1,-0.8 0.4,-1.8 0.7,-2.8 l 1.1,-4.1 h 1.1 l 1,4.1 c 0.2,1 0.4,1.9 0.6,2.8 v 0 c 0.2,-0.9 0.4,-1.8 0.7,-2.8 l 1.1,-4.1 h 1.1 l -2.3,8.1 h -1.1 l -1,-4.2 c -0.2,-1 -0.4,-1.8 -0.5,-2.6 v 0 c -0.1,0.8 -0.3,1.6 -0.6,2.6 l -1.2,4.2 h -1.1 v 0 z"
       id="path51"
       style="stroke-width:2.66666667;stroke-dasharray:none" />
    <path
       class="st2"
       d="m 889.9,426.4 c -0.4,0.2 -1.2,0.4 -2.1,0.4 -2.3,0 -4,-1.4 -4,-4.1 0,-2.7 1.7,-4.2 4.2,-4.2 2.5,0 1.6,0.2 1.9,0.4 l -0.2,0.9 c -0.4,-0.2 -1,-0.3 -1.6,-0.3 -1.9,0 -3.2,1.2 -3.2,3.3 0,2.1 1.1,3.2 3.1,3.2 2,0 1.3,-0.1 1.7,-0.3 l 0.2,0.8 v 0 z"
       id="path52"
       style="stroke-width:2.66666667;stroke-dasharray:none" />
  </g>
  <line
     class="st1"
     x1="817.90002"
     y1="734.80713"
     x2="729.5"
     y2="734.80713"
     id="line52"
     style="stroke-width:2.66666667;stroke-dasharray:none" />
  <line
     class="st1"
     x1="817.9"
     y1="1015"
     x2="729.5"
     y2="1015"
     id="line53"
     style="stroke-width:2.66666667;stroke-dasharray:none" />
  <line
     class="st1"
     x1="905.38696"
     y1="424.6188"
     x2="857.28693"
     y2="424.6188"
     id="line36-1"
     style="fill:none;stroke:#ffffff;stroke-width:2.66666667;stroke-miterlimit:10;stroke-dasharray:none" />
  <line
     class="st1"
     x1="907.08032"
     y1="896.25092"
     x2="818.6803"
     y2="896.25092"
     id="line52-2"
     style="fill:none;stroke:#ffffff;stroke-width:2.66666667;stroke-miterlimit:10;stroke-dasharray:none" />
  <line
     class="st1"
     x1="817.50793"
     y1="867.91852"
     x2="729.10791"
     y2="867.91852"
     id="line53-1"
     style="fill:none;stroke:#ffffff;stroke-width:2.66666667;stroke-miterlimit:10;stroke-dasharray:none" />
</svg>
